<mxfile host="app.diagrams.net" agent="Mozilla/5.0 (X11; Linux x86_64) AppleWebKit/537.36 (KHTML, like Gecko) Chrome/126.0.0.0 Safari/537.36" version="24.7.7">
  <diagram name="第 1 页" id="OQmmWRMZNrNLfSl5FtCB">
    <mxGraphModel dx="16" dy="-8731" grid="1" gridSize="10" guides="1" tooltips="1" connect="1" arrows="1" fold="1" page="1" pageScale="1" pageWidth="827" pageHeight="1169" math="1" shadow="0">
      <root>
        <mxCell id="0" />
        <mxCell id="1" parent="0" />
        <mxCell id="wz2QxPy03fODHcNXmg_H-1" value="" style="rounded=1;whiteSpace=wrap;html=1;" vertex="1" parent="1">
          <mxGeometry x="1212.62" y="11536" width="190" height="251" as="geometry" />
        </mxCell>
        <mxCell id="wz2QxPy03fODHcNXmg_H-2" value="" style="group" connectable="0" vertex="1" parent="1">
          <mxGeometry x="2880.0042767950054" y="10100" width="170" height="409" as="geometry" />
        </mxCell>
        <mxCell id="wz2QxPy03fODHcNXmg_H-3" value="" style="shape=cube;whiteSpace=wrap;html=1;boundedLbl=1;backgroundOutline=1;darkOpacity=0.05;darkOpacity2=0.1;dashed=1;" vertex="1" parent="wz2QxPy03fODHcNXmg_H-2">
          <mxGeometry x="2.5057232049948652" y="280" width="128" height="90" as="geometry" />
        </mxCell>
        <mxCell id="wz2QxPy03fODHcNXmg_H-4" value="" style="shape=cube;whiteSpace=wrap;html=1;boundedLbl=1;backgroundOutline=1;darkOpacity=0.05;darkOpacity2=0.1;dashed=1;" vertex="1" parent="wz2QxPy03fODHcNXmg_H-2">
          <mxGeometry x="10.505723204994865" y="211" width="120" height="90" as="geometry" />
        </mxCell>
        <mxCell id="wz2QxPy03fODHcNXmg_H-5" value="" style="shape=cube;whiteSpace=wrap;html=1;boundedLbl=1;backgroundOutline=1;darkOpacity=0.05;darkOpacity2=0.1;dashed=1;" vertex="1" parent="wz2QxPy03fODHcNXmg_H-2">
          <mxGeometry x="0.5078043704475022" y="140" width="129.99791883454733" height="90" as="geometry" />
        </mxCell>
        <mxCell id="wz2QxPy03fODHcNXmg_H-6" value="" style="shape=cube;whiteSpace=wrap;html=1;boundedLbl=1;backgroundOutline=1;darkOpacity=0.05;darkOpacity2=0.1;dashed=1;" vertex="1" parent="wz2QxPy03fODHcNXmg_H-2">
          <mxGeometry y="70" width="129.99791883454733" height="90" as="geometry" />
        </mxCell>
        <mxCell id="wz2QxPy03fODHcNXmg_H-7" value="" style="shape=cube;whiteSpace=wrap;html=1;boundedLbl=1;backgroundOutline=1;darkOpacity=0.05;darkOpacity2=0.1;dashed=1;" vertex="1" parent="wz2QxPy03fODHcNXmg_H-2">
          <mxGeometry width="129.99791883454733" height="90" as="geometry" />
        </mxCell>
        <mxCell id="wz2QxPy03fODHcNXmg_H-8" value="" style="shape=cube;whiteSpace=wrap;html=1;boundedLbl=1;backgroundOutline=1;darkOpacity=0.05;darkOpacity2=0.1;dashed=1;" vertex="1" parent="wz2QxPy03fODHcNXmg_H-2">
          <mxGeometry x="22.995723204994647" y="300" width="128" height="90" as="geometry" />
        </mxCell>
        <mxCell id="wz2QxPy03fODHcNXmg_H-9" value="" style="shape=cube;whiteSpace=wrap;html=1;boundedLbl=1;backgroundOutline=1;darkOpacity=0.05;darkOpacity2=0.1;dashed=1;" vertex="1" parent="wz2QxPy03fODHcNXmg_H-2">
          <mxGeometry x="30.995723204994647" y="231" width="120" height="90" as="geometry" />
        </mxCell>
        <mxCell id="wz2QxPy03fODHcNXmg_H-10" value="" style="shape=cube;whiteSpace=wrap;html=1;boundedLbl=1;backgroundOutline=1;darkOpacity=0.05;darkOpacity2=0.1;dashed=1;" vertex="1" parent="wz2QxPy03fODHcNXmg_H-2">
          <mxGeometry x="20.997804370447284" y="160" width="129.99791883454733" height="90" as="geometry" />
        </mxCell>
        <mxCell id="wz2QxPy03fODHcNXmg_H-11" value="" style="shape=cube;whiteSpace=wrap;html=1;boundedLbl=1;backgroundOutline=1;darkOpacity=0.05;darkOpacity2=0.1;dashed=1;" vertex="1" parent="wz2QxPy03fODHcNXmg_H-2">
          <mxGeometry x="20.48999999999978" y="90" width="129.99791883454733" height="90" as="geometry" />
        </mxCell>
        <mxCell id="wz2QxPy03fODHcNXmg_H-12" value="" style="shape=cube;whiteSpace=wrap;html=1;boundedLbl=1;backgroundOutline=1;darkOpacity=0.05;darkOpacity2=0.1;dashed=1;" vertex="1" parent="wz2QxPy03fODHcNXmg_H-2">
          <mxGeometry x="20.48999999999978" y="20" width="129.99791883454733" height="90" as="geometry" />
        </mxCell>
        <mxCell id="wz2QxPy03fODHcNXmg_H-13" value="" style="shape=cube;whiteSpace=wrap;html=1;boundedLbl=1;backgroundOutline=1;darkOpacity=0.05;darkOpacity2=0.1;dashed=1;" vertex="1" parent="wz2QxPy03fODHcNXmg_H-2">
          <mxGeometry x="40.74572320499465" y="319" width="128" height="90" as="geometry" />
        </mxCell>
        <mxCell id="wz2QxPy03fODHcNXmg_H-14" value="" style="shape=cube;whiteSpace=wrap;html=1;boundedLbl=1;backgroundOutline=1;darkOpacity=0.05;darkOpacity2=0.1;dashed=1;" vertex="1" parent="wz2QxPy03fODHcNXmg_H-2">
          <mxGeometry x="40.75" y="250" width="129.25" height="90" as="geometry" />
        </mxCell>
        <mxCell id="wz2QxPy03fODHcNXmg_H-15" value="" style="shape=cube;whiteSpace=wrap;html=1;boundedLbl=1;backgroundOutline=1;darkOpacity=0.05;darkOpacity2=0.1;dashed=1;" vertex="1" parent="wz2QxPy03fODHcNXmg_H-2">
          <mxGeometry x="38.747804370447284" y="179" width="129.99791883454733" height="90" as="geometry" />
        </mxCell>
        <mxCell id="wz2QxPy03fODHcNXmg_H-16" value="" style="shape=cube;whiteSpace=wrap;html=1;boundedLbl=1;backgroundOutline=1;darkOpacity=0.05;darkOpacity2=0.1;dashed=1;" vertex="1" parent="wz2QxPy03fODHcNXmg_H-2">
          <mxGeometry x="38.23999999999978" y="109" width="129.99791883454733" height="90" as="geometry" />
        </mxCell>
        <mxCell id="wz2QxPy03fODHcNXmg_H-17" value="" style="shape=cube;whiteSpace=wrap;html=1;boundedLbl=1;backgroundOutline=1;darkOpacity=0.05;darkOpacity2=0.1;dashed=1;" vertex="1" parent="wz2QxPy03fODHcNXmg_H-2">
          <mxGeometry x="38.23999999999978" y="39" width="129.99791883454733" height="90" as="geometry" />
        </mxCell>
        <mxCell id="wz2QxPy03fODHcNXmg_H-18" value="" style="shape=cube;whiteSpace=wrap;html=1;boundedLbl=1;backgroundOutline=1;darkOpacity=0.05;darkOpacity2=0.1;dashed=1;" vertex="1" parent="1">
          <mxGeometry x="2766.5" y="10391" width="128" height="90" as="geometry" />
        </mxCell>
        <mxCell id="wz2QxPy03fODHcNXmg_H-19" value="" style="shape=cube;whiteSpace=wrap;html=1;boundedLbl=1;backgroundOutline=1;darkOpacity=0.05;darkOpacity2=0.1;dashed=1;" vertex="1" parent="1">
          <mxGeometry x="2764" y="10300" width="128" height="90" as="geometry" />
        </mxCell>
        <mxCell id="wz2QxPy03fODHcNXmg_H-20" value="" style="shape=cube;whiteSpace=wrap;html=1;boundedLbl=1;backgroundOutline=1;darkOpacity=0.05;darkOpacity2=0.1;dashed=1;" vertex="1" parent="1">
          <mxGeometry x="2786" y="10411" width="128" height="90" as="geometry" />
        </mxCell>
        <mxCell id="wz2QxPy03fODHcNXmg_H-21" value="" style="shape=cube;whiteSpace=wrap;html=1;boundedLbl=1;backgroundOutline=1;darkOpacity=0.05;darkOpacity2=0.1;dashed=1;" vertex="1" parent="1">
          <mxGeometry x="2786" y="10341" width="128" height="90" as="geometry" />
        </mxCell>
        <mxCell id="wz2QxPy03fODHcNXmg_H-22" value="" style="shape=cube;whiteSpace=wrap;html=1;boundedLbl=1;backgroundOutline=1;darkOpacity=0.05;darkOpacity2=0.1;dashed=1;" vertex="1" parent="1">
          <mxGeometry x="2812" y="10420" width="128" height="90" as="geometry" />
        </mxCell>
        <mxCell id="wz2QxPy03fODHcNXmg_H-23" value="" style="shape=cube;whiteSpace=wrap;html=1;boundedLbl=1;backgroundOutline=1;darkOpacity=0.05;darkOpacity2=0.1;dashed=1;" vertex="1" parent="1">
          <mxGeometry x="2806" y="10361" width="128" height="90" as="geometry" />
        </mxCell>
        <mxCell id="wz2QxPy03fODHcNXmg_H-24" value="" style="shape=cube;whiteSpace=wrap;html=1;boundedLbl=1;backgroundOutline=1;darkOpacity=0.05;darkOpacity2=0.1;dashed=1;" vertex="1" parent="1">
          <mxGeometry x="2772.5" y="10391" width="128" height="90" as="geometry" />
        </mxCell>
        <mxCell id="wz2QxPy03fODHcNXmg_H-25" value="" style="shape=cube;whiteSpace=wrap;html=1;boundedLbl=1;backgroundOutline=1;darkOpacity=0.05;darkOpacity2=0.1;dashed=1;" vertex="1" parent="1">
          <mxGeometry x="2664.5" y="10391" width="128" height="90" as="geometry" />
        </mxCell>
        <mxCell id="wz2QxPy03fODHcNXmg_H-26" value="" style="shape=cube;whiteSpace=wrap;html=1;boundedLbl=1;backgroundOutline=1;darkOpacity=0.05;darkOpacity2=0.1;dashed=1;" vertex="1" parent="1">
          <mxGeometry x="2770" y="10300" width="128" height="90" as="geometry" />
        </mxCell>
        <mxCell id="wz2QxPy03fODHcNXmg_H-27" value="" style="shape=cube;whiteSpace=wrap;html=1;boundedLbl=1;backgroundOutline=1;darkOpacity=0.05;darkOpacity2=0.1;dashed=1;" vertex="1" parent="1">
          <mxGeometry x="2662" y="10300" width="128" height="90" as="geometry" />
        </mxCell>
        <mxCell id="wz2QxPy03fODHcNXmg_H-28" value="" style="shape=cube;whiteSpace=wrap;html=1;boundedLbl=1;backgroundOutline=1;darkOpacity=0.05;darkOpacity2=0.1;dashed=1;" vertex="1" parent="1">
          <mxGeometry x="2792" y="10411" width="128" height="90" as="geometry" />
        </mxCell>
        <mxCell id="wz2QxPy03fODHcNXmg_H-29" value="" style="shape=cube;whiteSpace=wrap;html=1;boundedLbl=1;backgroundOutline=1;darkOpacity=0.05;darkOpacity2=0.1;dashed=1;" vertex="1" parent="1">
          <mxGeometry x="2684" y="10411" width="128" height="90" as="geometry" />
        </mxCell>
        <mxCell id="wz2QxPy03fODHcNXmg_H-30" value="" style="shape=cube;whiteSpace=wrap;html=1;boundedLbl=1;backgroundOutline=1;darkOpacity=0.05;darkOpacity2=0.1;dashed=1;" vertex="1" parent="1">
          <mxGeometry x="2792" y="10341" width="128" height="90" as="geometry" />
        </mxCell>
        <mxCell id="wz2QxPy03fODHcNXmg_H-31" value="" style="shape=cube;whiteSpace=wrap;html=1;boundedLbl=1;backgroundOutline=1;darkOpacity=0.05;darkOpacity2=0.1;dashed=1;" vertex="1" parent="1">
          <mxGeometry x="2684" y="10341" width="128" height="90" as="geometry" />
        </mxCell>
        <mxCell id="wz2QxPy03fODHcNXmg_H-32" value="" style="shape=cube;whiteSpace=wrap;html=1;boundedLbl=1;backgroundOutline=1;darkOpacity=0.05;darkOpacity2=0.1;dashed=1;" vertex="1" parent="1">
          <mxGeometry x="2812" y="10420" width="128" height="90" as="geometry" />
        </mxCell>
        <mxCell id="wz2QxPy03fODHcNXmg_H-33" value="" style="shape=cube;whiteSpace=wrap;html=1;boundedLbl=1;backgroundOutline=1;darkOpacity=0.05;darkOpacity2=0.1;dashed=1;" vertex="1" parent="1">
          <mxGeometry x="2710" y="10420" width="130" height="90" as="geometry" />
        </mxCell>
        <mxCell id="wz2QxPy03fODHcNXmg_H-34" value="" style="shape=cube;whiteSpace=wrap;html=1;boundedLbl=1;backgroundOutline=1;darkOpacity=0.05;darkOpacity2=0.1;dashed=1;" vertex="1" parent="1">
          <mxGeometry x="2820" y="10351" width="120" height="90" as="geometry" />
        </mxCell>
        <mxCell id="wz2QxPy03fODHcNXmg_H-35" value="" style="shape=cube;whiteSpace=wrap;html=1;boundedLbl=1;backgroundOutline=1;darkOpacity=0.05;darkOpacity2=0.1;dashed=1;" vertex="1" parent="1">
          <mxGeometry x="2712" y="10351" width="128" height="90" as="geometry" />
        </mxCell>
        <mxCell id="wz2QxPy03fODHcNXmg_H-36" value="" style="shape=cube;whiteSpace=wrap;html=1;boundedLbl=1;backgroundOutline=1;darkOpacity=0.05;darkOpacity2=0.1;dashed=1;" vertex="1" parent="1">
          <mxGeometry x="2562.5" y="10391" width="128" height="90" as="geometry" />
        </mxCell>
        <mxCell id="wz2QxPy03fODHcNXmg_H-37" value="" style="shape=cube;whiteSpace=wrap;html=1;boundedLbl=1;backgroundOutline=1;darkOpacity=0.05;darkOpacity2=0.1;dashed=1;" vertex="1" parent="1">
          <mxGeometry x="2452.5" y="10370" width="122.5" height="100" as="geometry" />
        </mxCell>
        <mxCell id="wz2QxPy03fODHcNXmg_H-38" value="" style="shape=cube;whiteSpace=wrap;html=1;boundedLbl=1;backgroundOutline=1;darkOpacity=0.05;darkOpacity2=0.1;dashed=1;" vertex="1" parent="1">
          <mxGeometry x="2560" y="10300" width="128" height="90" as="geometry" />
        </mxCell>
        <mxCell id="wz2QxPy03fODHcNXmg_H-39" value="" style="shape=cube;whiteSpace=wrap;html=1;boundedLbl=1;backgroundOutline=1;darkOpacity=0.05;darkOpacity2=0.1;dashed=1;" vertex="1" parent="1">
          <mxGeometry x="2452" y="10300" width="128" height="90" as="geometry" />
        </mxCell>
        <mxCell id="wz2QxPy03fODHcNXmg_H-40" value="" style="shape=cube;whiteSpace=wrap;html=1;boundedLbl=1;backgroundOutline=1;darkOpacity=0.05;darkOpacity2=0.1;dashed=1;" vertex="1" parent="1">
          <mxGeometry x="2582" y="10411" width="128" height="90" as="geometry" />
        </mxCell>
        <mxCell id="wz2QxPy03fODHcNXmg_H-41" value="" style="shape=cube;whiteSpace=wrap;html=1;boundedLbl=1;backgroundOutline=1;darkOpacity=0.05;darkOpacity2=0.1;dashed=1;" vertex="1" parent="1">
          <mxGeometry x="2474.5" y="10400" width="128" height="90" as="geometry" />
        </mxCell>
        <mxCell id="wz2QxPy03fODHcNXmg_H-42" value="" style="shape=cube;whiteSpace=wrap;html=1;boundedLbl=1;backgroundOutline=1;darkOpacity=0.05;darkOpacity2=0.1;dashed=1;" vertex="1" parent="1">
          <mxGeometry x="2582" y="10341" width="128" height="90" as="geometry" />
        </mxCell>
        <mxCell id="wz2QxPy03fODHcNXmg_H-43" value="" style="shape=cube;whiteSpace=wrap;html=1;boundedLbl=1;backgroundOutline=1;darkOpacity=0.05;darkOpacity2=0.1;dashed=1;" vertex="1" parent="1">
          <mxGeometry x="2472.5" y="10330" width="128" height="90" as="geometry" />
        </mxCell>
        <mxCell id="wz2QxPy03fODHcNXmg_H-44" value="" style="shape=cube;whiteSpace=wrap;html=1;boundedLbl=1;backgroundOutline=1;darkOpacity=0.05;darkOpacity2=0.1;dashed=1;" vertex="1" parent="1">
          <mxGeometry x="2602.5" y="10420" width="128" height="90" as="geometry" />
        </mxCell>
        <mxCell id="wz2QxPy03fODHcNXmg_H-45" value="" style="shape=cube;whiteSpace=wrap;html=1;boundedLbl=1;backgroundOutline=1;darkOpacity=0.05;darkOpacity2=0.1;dashed=1;" vertex="1" parent="1">
          <mxGeometry x="2495" y="10420" width="128" height="90" as="geometry" />
        </mxCell>
        <mxCell id="wz2QxPy03fODHcNXmg_H-46" value="" style="shape=cube;whiteSpace=wrap;html=1;boundedLbl=1;backgroundOutline=1;darkOpacity=0.05;darkOpacity2=0.1;dashed=1;" vertex="1" parent="1">
          <mxGeometry x="2602.5" y="10351" width="128" height="90" as="geometry" />
        </mxCell>
        <mxCell id="wz2QxPy03fODHcNXmg_H-47" value="" style="shape=cube;whiteSpace=wrap;html=1;boundedLbl=1;backgroundOutline=1;darkOpacity=0.05;darkOpacity2=0.1;dashed=1;" vertex="1" parent="1">
          <mxGeometry x="2495" y="10351" width="128" height="90" as="geometry" />
        </mxCell>
        <mxCell id="wz2QxPy03fODHcNXmg_H-48" value="&lt;font style=&quot;font-size: 36px;&quot;&gt;&lt;b&gt;Autonomy_stack_diablo&lt;/b&gt;&lt;/font&gt;" style="text;html=1;align=center;verticalAlign=middle;resizable=0;points=[];autosize=1;strokeColor=none;fillColor=none;" vertex="1" parent="1">
          <mxGeometry x="950" y="9540" width="450" height="60" as="geometry" />
        </mxCell>
        <mxCell id="wz2QxPy03fODHcNXmg_H-49" value="" style="group" connectable="0" vertex="1" parent="1">
          <mxGeometry x="827" y="9690" width="719" height="60" as="geometry" />
        </mxCell>
        <mxCell id="wz2QxPy03fODHcNXmg_H-50" value="(0, meas0)" style="rounded=1;whiteSpace=wrap;html=1;" vertex="1" parent="wz2QxPy03fODHcNXmg_H-49">
          <mxGeometry width="120" height="60" as="geometry" />
        </mxCell>
        <mxCell id="wz2QxPy03fODHcNXmg_H-51" value="&lt;span style=&quot;color: rgb(0, 0, 0); font-family: Helvetica; font-size: 12px; font-style: normal; font-variant-ligatures: normal; font-variant-caps: normal; font-weight: 400; letter-spacing: normal; orphans: 2; text-align: center; text-indent: 0px; text-transform: none; widows: 2; word-spacing: 0px; -webkit-text-stroke-width: 0px; white-space: normal; background-color: rgb(251, 251, 251); text-decoration-thickness: initial; text-decoration-style: initial; text-decoration-color: initial; display: inline !important; float: none;&quot;&gt;(1, meas1)&lt;/span&gt;" style="whiteSpace=wrap;html=1;rounded=1;" vertex="1" parent="wz2QxPy03fODHcNXmg_H-49">
          <mxGeometry x="119" width="120" height="60" as="geometry" />
        </mxCell>
        <mxCell id="wz2QxPy03fODHcNXmg_H-52" value="&lt;span style=&quot;color: rgb(0, 0, 0); font-family: Helvetica; font-size: 12px; font-style: normal; font-variant-ligatures: normal; font-variant-caps: normal; font-weight: 400; letter-spacing: normal; orphans: 2; text-align: center; text-indent: 0px; text-transform: none; widows: 2; word-spacing: 0px; -webkit-text-stroke-width: 0px; white-space: normal; background-color: rgb(251, 251, 251); text-decoration-thickness: initial; text-decoration-style: initial; text-decoration-color: initial; display: inline !important; float: none;&quot;&gt;(2, meas2)&lt;/span&gt;" style="whiteSpace=wrap;html=1;rounded=1;" vertex="1" parent="wz2QxPy03fODHcNXmg_H-49">
          <mxGeometry x="239" width="120" height="60" as="geometry" />
        </mxCell>
        <mxCell id="wz2QxPy03fODHcNXmg_H-53" value="&lt;span style=&quot;color: rgb(0, 0, 0); font-family: Helvetica; font-size: 12px; font-style: normal; font-variant-ligatures: normal; font-variant-caps: normal; font-weight: 400; letter-spacing: normal; orphans: 2; text-align: center; text-indent: 0px; text-transform: none; widows: 2; word-spacing: 0px; -webkit-text-stroke-width: 0px; white-space: normal; background-color: rgb(251, 251, 251); text-decoration-thickness: initial; text-decoration-style: initial; text-decoration-color: initial; display: inline !important; float: none;&quot;&gt;(3, meas3)&lt;/span&gt;" style="whiteSpace=wrap;html=1;rounded=1;" vertex="1" parent="wz2QxPy03fODHcNXmg_H-49">
          <mxGeometry x="359" width="120" height="60" as="geometry" />
        </mxCell>
        <mxCell id="wz2QxPy03fODHcNXmg_H-54" value="&lt;span style=&quot;color: rgb(0, 0, 0); font-family: Helvetica; font-size: 12px; font-style: normal; font-variant-ligatures: normal; font-variant-caps: normal; font-weight: 400; letter-spacing: normal; orphans: 2; text-align: center; text-indent: 0px; text-transform: none; widows: 2; word-spacing: 0px; -webkit-text-stroke-width: 0px; white-space: normal; background-color: rgb(251, 251, 251); text-decoration-thickness: initial; text-decoration-style: initial; text-decoration-color: initial; display: inline !important; float: none;&quot;&gt;(4, meas4)&lt;/span&gt;" style="whiteSpace=wrap;html=1;rounded=1;" vertex="1" parent="wz2QxPy03fODHcNXmg_H-49">
          <mxGeometry x="479" width="120" height="60" as="geometry" />
        </mxCell>
        <mxCell id="wz2QxPy03fODHcNXmg_H-55" value="&lt;span style=&quot;color: rgb(0, 0, 0); font-family: Helvetica; font-size: 12px; font-style: normal; font-variant-ligatures: normal; font-variant-caps: normal; font-weight: 400; letter-spacing: normal; orphans: 2; text-align: center; text-indent: 0px; text-transform: none; widows: 2; word-spacing: 0px; -webkit-text-stroke-width: 0px; white-space: normal; background-color: rgb(251, 251, 251); text-decoration-thickness: initial; text-decoration-style: initial; text-decoration-color: initial; display: inline !important; float: none;&quot;&gt;(5, meas5)&lt;/span&gt;" style="whiteSpace=wrap;html=1;rounded=1;" vertex="1" parent="wz2QxPy03fODHcNXmg_H-49">
          <mxGeometry x="599" width="120" height="60" as="geometry" />
        </mxCell>
        <mxCell id="wz2QxPy03fODHcNXmg_H-56" value="" style="endArrow=classic;html=1;rounded=0;entryX=0.446;entryY=0.971;entryDx=0;entryDy=0;entryPerimeter=0;" edge="1" parent="1" target="wz2QxPy03fODHcNXmg_H-50">
          <mxGeometry width="50" height="50" relative="1" as="geometry">
            <mxPoint x="881" y="9840" as="sourcePoint" />
            <mxPoint x="870" y="9800" as="targetPoint" />
          </mxGeometry>
        </mxCell>
        <mxCell id="wz2QxPy03fODHcNXmg_H-57" value="" style="endArrow=classic;html=1;rounded=0;entryX=0.446;entryY=0.971;entryDx=0;entryDy=0;entryPerimeter=0;strokeColor=#33FF33;" edge="1" parent="1">
          <mxGeometry width="50" height="50" relative="1" as="geometry">
            <mxPoint x="1405" y="9810" as="sourcePoint" />
            <mxPoint x="1404.57" y="9750" as="targetPoint" />
          </mxGeometry>
        </mxCell>
        <mxCell id="wz2QxPy03fODHcNXmg_H-58" value="`t_{cur}`&lt;span class=&quot;eusoft-eudic-chrome-extension-translate-content&quot;&gt;&lt;/span&gt;&lt;span class=&quot;eusoft-eudic-chrome-extension-translate-content&quot;&gt;&lt;span class=&quot;eusoft-eudic-chrome-extension-translate-white-space ng-star-inserted&quot;&gt;&amp;nbsp;&lt;/span&gt;&lt;span data-eusoft-eudic-loading-template-original-text=&quot;`t_`&quot; class=&quot;eusoft-eudic-translate-loading-tag ng-star-inserted&quot;&gt;&lt;/span&gt;&lt;/span&gt;" style="text;html=1;align=center;verticalAlign=middle;resizable=0;points=[];autosize=1;strokeColor=none;fillColor=none;" vertex="1" parent="1">
          <mxGeometry x="1386" y="9770" width="80" height="30" as="geometry" />
        </mxCell>
        <mxCell id="wz2QxPy03fODHcNXmg_H-59" value="" style="endArrow=classic;html=1;rounded=0;" edge="1" parent="1">
          <mxGeometry width="50" height="50" relative="1" as="geometry">
            <mxPoint x="1536" y="9830" as="sourcePoint" />
            <mxPoint x="1536" y="9750" as="targetPoint" />
          </mxGeometry>
        </mxCell>
        <mxCell id="wz2QxPy03fODHcNXmg_H-60" value="beg" style="text;html=1;align=center;verticalAlign=middle;resizable=0;points=[];autosize=1;strokeColor=none;fillColor=none;" vertex="1" parent="1">
          <mxGeometry x="871" y="9838" width="40" height="30" as="geometry" />
        </mxCell>
        <mxCell id="wz2QxPy03fODHcNXmg_H-61" value="end" style="text;html=1;align=center;verticalAlign=middle;resizable=0;points=[];autosize=1;strokeColor=none;fillColor=none;" vertex="1" parent="1">
          <mxGeometry x="1541.25" y="9838" width="40" height="30" as="geometry" />
        </mxCell>
        <mxCell id="wz2QxPy03fODHcNXmg_H-62" value="" style="endArrow=classic;html=1;rounded=0;strokeColor=#FF3333;" edge="1" parent="1">
          <mxGeometry width="50" height="50" relative="1" as="geometry">
            <mxPoint x="1484" y="9840" as="sourcePoint" />
            <mxPoint x="1484.13" y="9750" as="targetPoint" />
          </mxGeometry>
        </mxCell>
        <mxCell id="wz2QxPy03fODHcNXmg_H-63" value="after_ptr" style="text;html=1;align=center;verticalAlign=middle;resizable=0;points=[];autosize=1;strokeColor=none;fillColor=none;" vertex="1" parent="1">
          <mxGeometry x="1460" y="9838" width="70" height="30" as="geometry" />
        </mxCell>
        <mxCell id="wz2QxPy03fODHcNXmg_H-64" value="" style="endArrow=classic;html=1;rounded=0;strokeColor=#FF3333;" edge="1" parent="1">
          <mxGeometry width="50" height="50" relative="1" as="geometry">
            <mxPoint x="1323" y="9840" as="sourcePoint" />
            <mxPoint x="1323.13" y="9750" as="targetPoint" />
          </mxGeometry>
        </mxCell>
        <mxCell id="wz2QxPy03fODHcNXmg_H-65" value="before_ptr" style="text;html=1;align=center;verticalAlign=middle;resizable=0;points=[];autosize=1;strokeColor=none;fillColor=none;" vertex="1" parent="1">
          <mxGeometry x="1276" y="9838" width="80" height="30" as="geometry" />
        </mxCell>
        <mxCell id="wz2QxPy03fODHcNXmg_H-66" value="" style="endArrow=classic;startArrow=classic;html=1;rounded=0;" edge="1" parent="1">
          <mxGeometry width="50" height="50" relative="1" as="geometry">
            <mxPoint x="1325" y="9820" as="sourcePoint" />
            <mxPoint x="1480" y="9820" as="targetPoint" />
          </mxGeometry>
        </mxCell>
        <mxCell id="wz2QxPy03fODHcNXmg_H-67" value="" style="endArrow=classic;startArrow=classic;html=1;rounded=0;" edge="1" parent="1">
          <mxGeometry width="50" height="50" relative="1" as="geometry">
            <mxPoint x="1325" y="9795.21" as="sourcePoint" />
            <mxPoint x="1402.5" y="9794.8" as="targetPoint" />
          </mxGeometry>
        </mxCell>
        <mxCell id="wz2QxPy03fODHcNXmg_H-68" value="`\alpha`" style="text;html=1;align=center;verticalAlign=middle;resizable=0;points=[];autosize=1;strokeColor=none;fillColor=none;" vertex="1" parent="1">
          <mxGeometry x="1330" y="9770" width="70" height="30" as="geometry" />
        </mxCell>
        <mxCell id="wz2QxPy03fODHcNXmg_H-69" value="" style="endArrow=classic;html=1;rounded=0;entryX=0.446;entryY=0.971;entryDx=0;entryDy=0;entryPerimeter=0;strokeColor=#33FF33;" edge="1" parent="1">
          <mxGeometry width="50" height="50" relative="1" as="geometry">
            <mxPoint x="1046" y="9810" as="sourcePoint" />
            <mxPoint x="1045.57" y="9750" as="targetPoint" />
          </mxGeometry>
        </mxCell>
        <mxCell id="wz2QxPy03fODHcNXmg_H-70" value="`t_{befo}`&lt;span class=&quot;eusoft-eudic-chrome-extension-translate-content&quot;&gt;&lt;/span&gt;&lt;span class=&quot;eusoft-eudic-chrome-extension-translate-content&quot;&gt;&lt;span class=&quot;eusoft-eudic-chrome-extension-translate-white-space ng-star-inserted&quot;&gt;&amp;nbsp;&lt;/span&gt;&lt;span data-eusoft-eudic-loading-template-original-text=&quot;`t_`&quot; class=&quot;eusoft-eudic-translate-loading-tag ng-star-inserted&quot;&gt;&lt;/span&gt;&lt;/span&gt;" style="text;html=1;align=center;verticalAlign=middle;resizable=0;points=[];autosize=1;strokeColor=none;fillColor=none;" vertex="1" parent="1">
          <mxGeometry x="1022" y="9770" width="90" height="30" as="geometry" />
        </mxCell>
        <mxCell id="wz2QxPy03fODHcNXmg_H-71" value="" style="endArrow=classic;html=1;rounded=0;strokeColor=#FF3333;" edge="1" parent="1">
          <mxGeometry width="50" height="50" relative="1" as="geometry">
            <mxPoint x="1125" y="9840" as="sourcePoint" />
            <mxPoint x="1125.13" y="9750" as="targetPoint" />
          </mxGeometry>
        </mxCell>
        <mxCell id="wz2QxPy03fODHcNXmg_H-72" value="" style="endArrow=classic;html=1;rounded=0;strokeColor=#FF3333;" edge="1" parent="1">
          <mxGeometry width="50" height="50" relative="1" as="geometry">
            <mxPoint x="964" y="9840" as="sourcePoint" />
            <mxPoint x="964.1300000000001" y="9750" as="targetPoint" />
          </mxGeometry>
        </mxCell>
        <mxCell id="wz2QxPy03fODHcNXmg_H-73" value="before_ptr" style="text;html=1;align=center;verticalAlign=middle;resizable=0;points=[];autosize=1;strokeColor=none;fillColor=none;" vertex="1" parent="1">
          <mxGeometry x="917" y="9838" width="80" height="30" as="geometry" />
        </mxCell>
        <mxCell id="wz2QxPy03fODHcNXmg_H-74" value="" style="endArrow=classic;startArrow=classic;html=1;rounded=0;" edge="1" parent="1">
          <mxGeometry width="50" height="50" relative="1" as="geometry">
            <mxPoint x="966" y="9820" as="sourcePoint" />
            <mxPoint x="1121" y="9820" as="targetPoint" />
          </mxGeometry>
        </mxCell>
        <mxCell id="wz2QxPy03fODHcNXmg_H-75" value="" style="endArrow=classic;startArrow=classic;html=1;rounded=0;" edge="1" parent="1">
          <mxGeometry width="50" height="50" relative="1" as="geometry">
            <mxPoint x="966" y="9795.21" as="sourcePoint" />
            <mxPoint x="1043.5" y="9794.8" as="targetPoint" />
          </mxGeometry>
        </mxCell>
        <mxCell id="wz2QxPy03fODHcNXmg_H-76" value="`\alpha`" style="text;html=1;align=center;verticalAlign=middle;resizable=0;points=[];autosize=1;strokeColor=none;fillColor=none;" vertex="1" parent="1">
          <mxGeometry x="971" y="9770" width="70" height="30" as="geometry" />
        </mxCell>
        <mxCell id="wz2QxPy03fODHcNXmg_H-77" value="after_ptr" style="text;html=1;align=center;verticalAlign=middle;resizable=0;points=[];autosize=1;strokeColor=none;fillColor=none;" vertex="1" parent="1">
          <mxGeometry x="1095" y="9838" width="70" height="30" as="geometry" />
        </mxCell>
        <mxCell id="wz2QxPy03fODHcNXmg_H-78" value="" style="shape=flexArrow;endArrow=classic;html=1;rounded=0;" edge="1" parent="1">
          <mxGeometry width="50" height="50" relative="1" as="geometry">
            <mxPoint x="1041" y="9860" as="sourcePoint" />
            <mxPoint x="1041" y="9910" as="targetPoint" />
          </mxGeometry>
        </mxCell>
        <mxCell id="wz2QxPy03fODHcNXmg_H-79" value="`T_{WI_{cur}}`&lt;span class=&quot;eusoft-eudic-chrome-extension-translate-content&quot;&gt;&lt;span class=&quot;eusoft-eudic-chrome-extension-translate-white-space ng-star-inserted&quot;&gt;&amp;nbsp;&lt;/span&gt;&lt;/span&gt;" style="text;html=1;align=center;verticalAlign=middle;resizable=0;points=[];autosize=1;strokeColor=none;fillColor=none;" vertex="1" parent="1">
          <mxGeometry x="1350" y="9920" width="110" height="30" as="geometry" />
        </mxCell>
        <mxCell id="wz2QxPy03fODHcNXmg_H-80" value="`T_{WI_{prev}}`&lt;span class=&quot;eusoft-eudic-chrome-extension-translate-content&quot;&gt;&lt;span class=&quot;eusoft-eudic-chrome-extension-translate-white-space ng-star-inserted&quot;&gt;&amp;nbsp;&lt;/span&gt;&lt;/span&gt;" style="text;html=1;align=center;verticalAlign=middle;resizable=0;points=[];autosize=1;strokeColor=none;fillColor=none;" vertex="1" parent="1">
          <mxGeometry x="990" y="9920" width="120" height="30" as="geometry" />
        </mxCell>
        <mxCell id="wz2QxPy03fODHcNXmg_H-81" value="" style="shape=flexArrow;endArrow=classic;html=1;rounded=0;" edge="1" parent="1">
          <mxGeometry width="50" height="50" relative="1" as="geometry">
            <mxPoint x="1400" y="9868" as="sourcePoint" />
            <mxPoint x="1400" y="9918" as="targetPoint" />
          </mxGeometry>
        </mxCell>
        <mxCell id="wz2QxPy03fODHcNXmg_H-82" value="`T_{cur}^{pre}`=`T_{WI_{prev}}&amp;nbsp; \times T_{WI_{cur}}`&lt;span class=&quot;eusoft-eudic-chrome-extension-translate-content&quot;&gt;&amp;nbsp;&lt;/span&gt;&lt;span class=&quot;eusoft-eudic-chrome-extension-translate-content&quot;&gt;&lt;br class=&quot;ng-star-inserted&quot;&gt;&lt;br&gt;&lt;/span&gt;" style="text;html=1;align=center;verticalAlign=middle;resizable=0;points=[];autosize=1;strokeColor=none;fillColor=none;" vertex="1" parent="1">
          <mxGeometry x="1080" y="9970" width="320" height="40" as="geometry" />
        </mxCell>
        <mxCell id="wz2QxPy03fODHcNXmg_H-83" value="" style="endArrow=classic;html=1;rounded=0;edgeStyle=isometricEdgeStyle;elbow=vertical;exitX=-0.031;exitY=0.848;exitDx=0;exitDy=0;exitPerimeter=0;" edge="1" parent="1" source="wz2QxPy03fODHcNXmg_H-79" target="wz2QxPy03fODHcNXmg_H-80">
          <mxGeometry width="50" height="50" relative="1" as="geometry">
            <mxPoint x="1230" y="9970" as="sourcePoint" />
            <mxPoint x="1280" y="9920" as="targetPoint" />
            <Array as="points">
              <mxPoint x="1210" y="9930" />
            </Array>
          </mxGeometry>
        </mxCell>
        <mxCell id="wz2QxPy03fODHcNXmg_H-84" value="W&lt;span class=&quot;eusoft-eudic-chrome-extension-translate-content&quot;&gt;&lt;/span&gt;" style="text;html=1;align=center;verticalAlign=middle;resizable=0;points=[];autosize=1;strokeColor=none;fillColor=none;" vertex="1" parent="1">
          <mxGeometry x="2335" y="10480" width="30" height="30" as="geometry" />
        </mxCell>
        <mxCell id="wz2QxPy03fODHcNXmg_H-85" value="" style="endArrow=classic;startArrow=classic;html=1;rounded=0;" edge="1" parent="1">
          <mxGeometry width="50" height="50" relative="1" as="geometry">
            <mxPoint x="2517" y="10550" as="sourcePoint" />
            <mxPoint x="3050" y="10550" as="targetPoint" />
          </mxGeometry>
        </mxCell>
        <mxCell id="wz2QxPy03fODHcNXmg_H-86" value="" style="endArrow=none;html=1;rounded=0;entryX=0;entryY=0;entryDx=20;entryDy=90;entryPerimeter=0;" edge="1" parent="1">
          <mxGeometry width="50" height="50" relative="1" as="geometry">
            <mxPoint x="2515" y="10580" as="sourcePoint" />
            <mxPoint x="2515" y="10520" as="targetPoint" />
          </mxGeometry>
        </mxCell>
        <mxCell id="wz2QxPy03fODHcNXmg_H-87" value="" style="endArrow=none;html=1;rounded=0;entryX=0;entryY=0;entryDx=20;entryDy=90;entryPerimeter=0;" edge="1" parent="1">
          <mxGeometry width="50" height="50" relative="1" as="geometry">
            <mxPoint x="3050" y="10569" as="sourcePoint" />
            <mxPoint x="3050" y="10509" as="targetPoint" />
          </mxGeometry>
        </mxCell>
        <mxCell id="wz2QxPy03fODHcNXmg_H-88" value="" style="group" connectable="0" vertex="1" parent="1">
          <mxGeometry x="2355" y="10450" width="40" height="40" as="geometry" />
        </mxCell>
        <mxCell id="wz2QxPy03fODHcNXmg_H-89" value="" style="endArrow=classic;html=1;rounded=0;" edge="1" parent="wz2QxPy03fODHcNXmg_H-88">
          <mxGeometry width="50" height="50" relative="1" as="geometry">
            <mxPoint y="40" as="sourcePoint" />
            <mxPoint as="targetPoint" />
          </mxGeometry>
        </mxCell>
        <mxCell id="wz2QxPy03fODHcNXmg_H-90" value="" style="endArrow=classic;html=1;rounded=0;" edge="1" parent="wz2QxPy03fODHcNXmg_H-88">
          <mxGeometry width="50" height="50" relative="1" as="geometry">
            <mxPoint y="40" as="sourcePoint" />
            <mxPoint x="40" y="40" as="targetPoint" />
          </mxGeometry>
        </mxCell>
        <mxCell id="wz2QxPy03fODHcNXmg_H-91" value="" style="endArrow=classic;html=1;rounded=0;" edge="1" parent="wz2QxPy03fODHcNXmg_H-88">
          <mxGeometry width="50" height="50" relative="1" as="geometry">
            <mxPoint y="40" as="sourcePoint" />
            <mxPoint x="30" y="10" as="targetPoint" />
          </mxGeometry>
        </mxCell>
        <mxCell id="wz2QxPy03fODHcNXmg_H-92" value="&lt;div style=&quot;color: #cccccc;background-color: #1f1f1f;font-family: &#39;JetBrains Mono&#39;, &#39;Droid Sans Mono&#39;, &#39;monospace&#39;, monospace;font-weight: normal;font-size: 14px;line-height: 19px;white-space: pre;&quot;&gt;&lt;div&gt;&lt;span style=&quot;color: #9cdcfe;&quot;&gt;voxelResulation&lt;/span&gt;&lt;/div&gt;&lt;/div&gt;" style="text;whiteSpace=wrap;html=1;" vertex="1" parent="1">
          <mxGeometry x="2668" y="10570" width="160" height="40" as="geometry" />
        </mxCell>
        <mxCell id="wz2QxPy03fODHcNXmg_H-93" value="" style="group" connectable="0" vertex="1" parent="1">
          <mxGeometry x="2452" y="10100" width="648" height="590" as="geometry" />
        </mxCell>
        <mxCell id="wz2QxPy03fODHcNXmg_H-94" value="" style="shape=cube;whiteSpace=wrap;html=1;boundedLbl=1;backgroundOutline=1;darkOpacity=0.05;darkOpacity2=0.1;dashed=1;" vertex="1" parent="wz2QxPy03fODHcNXmg_H-93">
          <mxGeometry x="317.885535900104" y="140" width="129.99791883454733" height="90" as="geometry" />
        </mxCell>
        <mxCell id="wz2QxPy03fODHcNXmg_H-95" value="" style="shape=cube;whiteSpace=wrap;html=1;boundedLbl=1;backgroundOutline=1;darkOpacity=0.05;darkOpacity2=0.1;dashed=1;" vertex="1" parent="wz2QxPy03fODHcNXmg_H-93">
          <mxGeometry x="317.37773152965656" y="70" width="129.99791883454733" height="90" as="geometry" />
        </mxCell>
        <mxCell id="wz2QxPy03fODHcNXmg_H-96" value="" style="shape=cube;whiteSpace=wrap;html=1;boundedLbl=1;backgroundOutline=1;darkOpacity=0.05;darkOpacity2=0.1;dashed=1;" vertex="1" parent="wz2QxPy03fODHcNXmg_H-93">
          <mxGeometry x="317.37773152965656" width="129.99791883454733" height="90" as="geometry" />
        </mxCell>
        <mxCell id="wz2QxPy03fODHcNXmg_H-97" value="" style="shape=cube;whiteSpace=wrap;html=1;boundedLbl=1;backgroundOutline=1;darkOpacity=0.05;darkOpacity2=0.1;dashed=1;" vertex="1" parent="wz2QxPy03fODHcNXmg_H-93">
          <mxGeometry x="337.6899063475546" y="160" width="129.99791883454733" height="90" as="geometry" />
        </mxCell>
        <mxCell id="wz2QxPy03fODHcNXmg_H-98" value="" style="shape=cube;whiteSpace=wrap;html=1;boundedLbl=1;backgroundOutline=1;darkOpacity=0.05;darkOpacity2=0.1;dashed=1;" vertex="1" parent="wz2QxPy03fODHcNXmg_H-93">
          <mxGeometry x="337.18210197710715" y="90" width="129.99791883454733" height="90" as="geometry" />
        </mxCell>
        <mxCell id="wz2QxPy03fODHcNXmg_H-99" value="" style="shape=cube;whiteSpace=wrap;html=1;boundedLbl=1;backgroundOutline=1;darkOpacity=0.05;darkOpacity2=0.1;dashed=1;" vertex="1" parent="wz2QxPy03fODHcNXmg_H-93">
          <mxGeometry x="337.18210197710715" y="20" width="129.99791883454733" height="90" as="geometry" />
        </mxCell>
        <mxCell id="wz2QxPy03fODHcNXmg_H-100" value="" style="shape=cube;whiteSpace=wrap;html=1;boundedLbl=1;backgroundOutline=1;darkOpacity=0.05;darkOpacity2=0.1;dashed=1;" vertex="1" parent="wz2QxPy03fODHcNXmg_H-93">
          <mxGeometry x="358.00208116545264" y="180" width="129.99791883454733" height="90" as="geometry" />
        </mxCell>
        <mxCell id="wz2QxPy03fODHcNXmg_H-101" value="" style="shape=cube;whiteSpace=wrap;html=1;boundedLbl=1;backgroundOutline=1;darkOpacity=0.05;darkOpacity2=0.1;dashed=1;" vertex="1" parent="wz2QxPy03fODHcNXmg_H-93">
          <mxGeometry x="357.4942767950052" y="110" width="129.99791883454733" height="90" as="geometry" />
        </mxCell>
        <mxCell id="wz2QxPy03fODHcNXmg_H-102" value="" style="shape=cube;whiteSpace=wrap;html=1;boundedLbl=1;backgroundOutline=1;darkOpacity=0.05;darkOpacity2=0.1;dashed=1;" vertex="1" parent="wz2QxPy03fODHcNXmg_H-93">
          <mxGeometry x="357.4942767950052" y="40" width="129.99791883454733" height="90" as="geometry" />
        </mxCell>
        <mxCell id="wz2QxPy03fODHcNXmg_H-103" value="" style="shape=cube;whiteSpace=wrap;html=1;boundedLbl=1;backgroundOutline=1;darkOpacity=0.05;darkOpacity2=0.1;dashed=1;" vertex="1" parent="wz2QxPy03fODHcNXmg_H-93">
          <mxGeometry x="218.86368366285117" y="140" width="129.99791883454733" height="90" as="geometry" />
        </mxCell>
        <mxCell id="wz2QxPy03fODHcNXmg_H-104" value="" style="shape=cube;whiteSpace=wrap;html=1;boundedLbl=1;backgroundOutline=1;darkOpacity=0.05;darkOpacity2=0.1;dashed=1;" vertex="1" parent="wz2QxPy03fODHcNXmg_H-93">
          <mxGeometry x="110.19354838709677" y="140" width="129.99791883454733" height="90" as="geometry" />
        </mxCell>
        <mxCell id="wz2QxPy03fODHcNXmg_H-105" value="" style="shape=cube;whiteSpace=wrap;html=1;boundedLbl=1;backgroundOutline=1;darkOpacity=0.05;darkOpacity2=0.1;dashed=1;" vertex="1" parent="wz2QxPy03fODHcNXmg_H-93">
          <mxGeometry x="0.5078043704474505" y="140" width="129.99791883454733" height="90" as="geometry" />
        </mxCell>
        <mxCell id="wz2QxPy03fODHcNXmg_H-106" value="" style="shape=cube;whiteSpace=wrap;html=1;boundedLbl=1;backgroundOutline=1;darkOpacity=0.05;darkOpacity2=0.1;dashed=1;" vertex="1" parent="wz2QxPy03fODHcNXmg_H-93">
          <mxGeometry x="218.35587929240373" y="70" width="129.99791883454733" height="90" as="geometry" />
        </mxCell>
        <mxCell id="wz2QxPy03fODHcNXmg_H-107" value="" style="shape=cube;whiteSpace=wrap;html=1;boundedLbl=1;backgroundOutline=1;darkOpacity=0.05;darkOpacity2=0.1;dashed=1;" vertex="1" parent="wz2QxPy03fODHcNXmg_H-93">
          <mxGeometry x="109.68574401664931" y="70" width="129.99791883454733" height="90" as="geometry" />
        </mxCell>
        <mxCell id="wz2QxPy03fODHcNXmg_H-108" value="" style="shape=cube;whiteSpace=wrap;html=1;boundedLbl=1;backgroundOutline=1;darkOpacity=0.05;darkOpacity2=0.1;dashed=1;" vertex="1" parent="wz2QxPy03fODHcNXmg_H-93">
          <mxGeometry y="70" width="129.99791883454733" height="90" as="geometry" />
        </mxCell>
        <mxCell id="wz2QxPy03fODHcNXmg_H-109" value="" style="shape=cube;whiteSpace=wrap;html=1;boundedLbl=1;backgroundOutline=1;darkOpacity=0.05;darkOpacity2=0.1;dashed=1;" vertex="1" parent="wz2QxPy03fODHcNXmg_H-93">
          <mxGeometry x="218.35587929240373" width="129.99791883454733" height="90" as="geometry" />
        </mxCell>
        <mxCell id="wz2QxPy03fODHcNXmg_H-110" value="" style="shape=cube;whiteSpace=wrap;html=1;boundedLbl=1;backgroundOutline=1;darkOpacity=0.05;darkOpacity2=0.1;dashed=1;" vertex="1" parent="wz2QxPy03fODHcNXmg_H-93">
          <mxGeometry x="109.68574401664931" width="129.99791883454733" height="90" as="geometry" />
        </mxCell>
        <mxCell id="wz2QxPy03fODHcNXmg_H-111" value="" style="shape=cube;whiteSpace=wrap;html=1;boundedLbl=1;backgroundOutline=1;darkOpacity=0.05;darkOpacity2=0.1;dashed=1;" vertex="1" parent="wz2QxPy03fODHcNXmg_H-93">
          <mxGeometry width="129.99791883454733" height="90" as="geometry" />
        </mxCell>
        <mxCell id="wz2QxPy03fODHcNXmg_H-112" value="" style="shape=cube;whiteSpace=wrap;html=1;boundedLbl=1;backgroundOutline=1;darkOpacity=0.05;darkOpacity2=0.1;dashed=1;" vertex="1" parent="wz2QxPy03fODHcNXmg_H-93">
          <mxGeometry x="238.66805411030174" y="160" width="129.99791883454733" height="90" as="geometry" />
        </mxCell>
        <mxCell id="wz2QxPy03fODHcNXmg_H-113" value="" style="shape=cube;whiteSpace=wrap;html=1;boundedLbl=1;backgroundOutline=1;darkOpacity=0.05;darkOpacity2=0.1;dashed=1;" vertex="1" parent="wz2QxPy03fODHcNXmg_H-93">
          <mxGeometry x="129.99791883454733" y="160" width="129.99791883454733" height="90" as="geometry" />
        </mxCell>
        <mxCell id="wz2QxPy03fODHcNXmg_H-114" value="" style="shape=cube;whiteSpace=wrap;html=1;boundedLbl=1;backgroundOutline=1;darkOpacity=0.05;darkOpacity2=0.1;dashed=1;" vertex="1" parent="wz2QxPy03fODHcNXmg_H-93">
          <mxGeometry x="20.312174817898022" y="160" width="129.99791883454733" height="90" as="geometry" />
        </mxCell>
        <mxCell id="wz2QxPy03fODHcNXmg_H-115" value="" style="shape=cube;whiteSpace=wrap;html=1;boundedLbl=1;backgroundOutline=1;darkOpacity=0.05;darkOpacity2=0.1;dashed=1;" vertex="1" parent="wz2QxPy03fODHcNXmg_H-93">
          <mxGeometry x="238.1602497398543" y="90" width="129.99791883454733" height="90" as="geometry" />
        </mxCell>
        <mxCell id="wz2QxPy03fODHcNXmg_H-116" value="" style="shape=cube;whiteSpace=wrap;html=1;boundedLbl=1;backgroundOutline=1;darkOpacity=0.05;darkOpacity2=0.1;dashed=1;" vertex="1" parent="wz2QxPy03fODHcNXmg_H-93">
          <mxGeometry x="129.4901144640999" y="90" width="129.99791883454733" height="90" as="geometry" />
        </mxCell>
        <mxCell id="wz2QxPy03fODHcNXmg_H-117" value="" style="shape=cube;whiteSpace=wrap;html=1;boundedLbl=1;backgroundOutline=1;darkOpacity=0.05;darkOpacity2=0.1;dashed=1;" vertex="1" parent="wz2QxPy03fODHcNXmg_H-93">
          <mxGeometry x="19.80437044745057" y="90" width="129.99791883454733" height="90" as="geometry" />
        </mxCell>
        <mxCell id="wz2QxPy03fODHcNXmg_H-118" value="" style="shape=cube;whiteSpace=wrap;html=1;boundedLbl=1;backgroundOutline=1;darkOpacity=0.05;darkOpacity2=0.1;dashed=1;" vertex="1" parent="wz2QxPy03fODHcNXmg_H-93">
          <mxGeometry x="238.1602497398543" y="20" width="129.99791883454733" height="90" as="geometry" />
        </mxCell>
        <mxCell id="wz2QxPy03fODHcNXmg_H-119" value="" style="shape=cube;whiteSpace=wrap;html=1;boundedLbl=1;backgroundOutline=1;darkOpacity=0.05;darkOpacity2=0.1;dashed=1;" vertex="1" parent="wz2QxPy03fODHcNXmg_H-93">
          <mxGeometry x="129.4901144640999" y="20" width="129.99791883454733" height="90" as="geometry" />
        </mxCell>
        <mxCell id="wz2QxPy03fODHcNXmg_H-120" value="" style="shape=cube;whiteSpace=wrap;html=1;boundedLbl=1;backgroundOutline=1;darkOpacity=0.05;darkOpacity2=0.1;dashed=1;" vertex="1" parent="wz2QxPy03fODHcNXmg_H-93">
          <mxGeometry x="19.80437044745057" y="20" width="129.99791883454733" height="90" as="geometry" />
        </mxCell>
        <mxCell id="wz2QxPy03fODHcNXmg_H-121" value="" style="shape=cube;whiteSpace=wrap;html=1;boundedLbl=1;backgroundOutline=1;darkOpacity=0.05;darkOpacity2=0.1;dashed=1;" vertex="1" parent="wz2QxPy03fODHcNXmg_H-93">
          <mxGeometry x="258.9802289281998" y="180" width="129.99791883454733" height="90" as="geometry" />
        </mxCell>
        <mxCell id="wz2QxPy03fODHcNXmg_H-122" value="" style="shape=cube;whiteSpace=wrap;html=1;boundedLbl=1;backgroundOutline=1;darkOpacity=0.05;darkOpacity2=0.1;dashed=1;" vertex="1" parent="wz2QxPy03fODHcNXmg_H-93">
          <mxGeometry x="150.31009365244535" y="180" width="129.99791883454733" height="90" as="geometry" />
        </mxCell>
        <mxCell id="wz2QxPy03fODHcNXmg_H-123" value="" style="shape=cube;whiteSpace=wrap;html=1;boundedLbl=1;backgroundOutline=1;darkOpacity=0.05;darkOpacity2=0.1;dashed=1;" vertex="1" parent="wz2QxPy03fODHcNXmg_H-93">
          <mxGeometry x="40.624349635796044" y="180" width="129.99791883454733" height="90" as="geometry" />
        </mxCell>
        <mxCell id="wz2QxPy03fODHcNXmg_H-124" value="" style="shape=cube;whiteSpace=wrap;html=1;boundedLbl=1;backgroundOutline=1;darkOpacity=0.05;darkOpacity2=0.1;dashed=1;" vertex="1" parent="wz2QxPy03fODHcNXmg_H-93">
          <mxGeometry x="258.47242455775233" y="110" width="129.99791883454733" height="90" as="geometry" />
        </mxCell>
        <mxCell id="wz2QxPy03fODHcNXmg_H-125" value="" style="shape=cube;whiteSpace=wrap;html=1;boundedLbl=1;backgroundOutline=1;darkOpacity=0.05;darkOpacity2=0.1;dashed=1;" vertex="1" parent="wz2QxPy03fODHcNXmg_H-93">
          <mxGeometry x="149.8022892819979" y="110" width="129.99791883454733" height="90" as="geometry" />
        </mxCell>
        <mxCell id="wz2QxPy03fODHcNXmg_H-126" value="" style="shape=cube;whiteSpace=wrap;html=1;boundedLbl=1;backgroundOutline=1;darkOpacity=0.05;darkOpacity2=0.1;dashed=1;" vertex="1" parent="wz2QxPy03fODHcNXmg_H-93">
          <mxGeometry x="40.11654526534859" y="110" width="129.99791883454733" height="90" as="geometry" />
        </mxCell>
        <mxCell id="wz2QxPy03fODHcNXmg_H-127" value="" style="shape=cube;whiteSpace=wrap;html=1;boundedLbl=1;backgroundOutline=1;darkOpacity=0.05;darkOpacity2=0.1;dashed=1;" vertex="1" parent="wz2QxPy03fODHcNXmg_H-93">
          <mxGeometry x="258.47242455775233" y="40" width="129.99791883454733" height="90" as="geometry" />
        </mxCell>
        <mxCell id="wz2QxPy03fODHcNXmg_H-128" value="" style="shape=cube;whiteSpace=wrap;html=1;boundedLbl=1;backgroundOutline=1;darkOpacity=0.05;darkOpacity2=0.1;dashed=1;" vertex="1" parent="wz2QxPy03fODHcNXmg_H-93">
          <mxGeometry x="149.8022892819979" y="40" width="129.99791883454733" height="90" as="geometry" />
        </mxCell>
        <mxCell id="wz2QxPy03fODHcNXmg_H-129" value="X" style="shape=cube;whiteSpace=wrap;html=1;boundedLbl=1;backgroundOutline=1;darkOpacity=0.05;darkOpacity2=0.1;dashed=1;" vertex="1" parent="wz2QxPy03fODHcNXmg_H-93">
          <mxGeometry x="40.11654526534859" y="40" width="129.99791883454733" height="90" as="geometry" />
        </mxCell>
        <mxCell id="wz2QxPy03fODHcNXmg_H-130" value="" style="group" connectable="0" vertex="1" parent="wz2QxPy03fODHcNXmg_H-93">
          <mxGeometry x="338.00270551508845" y="210" width="40.624349635796044" height="50" as="geometry" />
        </mxCell>
        <mxCell id="wz2QxPy03fODHcNXmg_H-131" value="" style="endArrow=classic;html=1;rounded=0;" edge="1" parent="wz2QxPy03fODHcNXmg_H-130">
          <mxGeometry width="50" height="50" relative="1" as="geometry">
            <mxPoint y="40" as="sourcePoint" />
            <mxPoint as="targetPoint" />
          </mxGeometry>
        </mxCell>
        <mxCell id="wz2QxPy03fODHcNXmg_H-132" value="" style="endArrow=classic;html=1;rounded=0;" edge="1" parent="wz2QxPy03fODHcNXmg_H-130">
          <mxGeometry width="50" height="50" relative="1" as="geometry">
            <mxPoint y="40" as="sourcePoint" />
            <mxPoint x="40.624349635796044" y="40" as="targetPoint" />
          </mxGeometry>
        </mxCell>
        <mxCell id="wz2QxPy03fODHcNXmg_H-133" value="" style="endArrow=classic;html=1;rounded=0;" edge="1" parent="wz2QxPy03fODHcNXmg_H-130">
          <mxGeometry width="50" height="50" relative="1" as="geometry">
            <mxPoint y="40" as="sourcePoint" />
            <mxPoint x="30.46826222684703" y="10" as="targetPoint" />
          </mxGeometry>
        </mxCell>
        <mxCell id="wz2QxPy03fODHcNXmg_H-134" value="" style="ellipse;whiteSpace=wrap;html=1;aspect=fixed;" vertex="1" parent="wz2QxPy03fODHcNXmg_H-130">
          <mxGeometry x="-10.004131113423625" y="20" width="30" height="30" as="geometry" />
        </mxCell>
        <mxCell id="wz2QxPy03fODHcNXmg_H-135" value="L" style="text;html=1;align=center;verticalAlign=middle;resizable=0;points=[];autosize=1;strokeColor=none;fillColor=none;" vertex="1" parent="wz2QxPy03fODHcNXmg_H-93">
          <mxGeometry x="293.0003121748179" y="230" width="30" height="30" as="geometry" />
        </mxCell>
        <mxCell id="wz2QxPy03fODHcNXmg_H-136" value="`p_{center}`" style="text;html=1;align=center;verticalAlign=middle;resizable=0;points=[];autosize=1;strokeColor=none;fillColor=none;" vertex="1" parent="wz2QxPy03fODHcNXmg_H-93">
          <mxGeometry x="258" y="210" width="100" height="30" as="geometry" />
        </mxCell>
        <mxCell id="wz2QxPy03fODHcNXmg_H-137" value="" style="rounded=0;whiteSpace=wrap;html=1;fillColor=none;strokeColor=#FF3333;" vertex="1" parent="wz2QxPy03fODHcNXmg_H-93">
          <mxGeometry x="58" y="60" width="542" height="360" as="geometry" />
        </mxCell>
        <mxCell id="wz2QxPy03fODHcNXmg_H-138" value="" style="rounded=0;whiteSpace=wrap;html=1;strokeColor=#33FF33;fillColor=none;" vertex="1" parent="wz2QxPy03fODHcNXmg_H-93">
          <mxGeometry x="170.11" y="130" width="319.89" height="210" as="geometry" />
        </mxCell>
        <mxCell id="wz2QxPy03fODHcNXmg_H-139" value="&lt;span style=&quot;color: rgb(156, 220, 254); font-family: &amp;quot;JetBrains Mono&amp;quot;, &amp;quot;Droid Sans Mono&amp;quot;, &amp;quot;monospace&amp;quot;, monospace; font-size: 14px; font-style: normal; font-variant-ligatures: normal; font-variant-caps: normal; font-weight: 400; letter-spacing: normal; orphans: 2; text-align: left; text-indent: 0px; text-transform: none; widows: 2; word-spacing: 0px; -webkit-text-stroke-width: 0px; white-space: pre; background-color: rgb(31, 31, 31); text-decoration-thickness: initial; text-decoration-style: initial; text-decoration-color: initial; display: inline !important; float: none;&quot;&gt;cubeInd&lt;/span&gt;" style="text;whiteSpace=wrap;html=1;" vertex="1" parent="wz2QxPy03fODHcNXmg_H-93">
          <mxGeometry x="194.65999999999985" y="131" width="57" height="29" as="geometry" />
        </mxCell>
        <mxCell id="wz2QxPy03fODHcNXmg_H-140" value="" style="ellipse;whiteSpace=wrap;html=1;aspect=fixed;fillColor=#6666FF;" vertex="1" parent="wz2QxPy03fODHcNXmg_H-93">
          <mxGeometry x="210.19000000000005" y="160" width="30" height="30" as="geometry" />
        </mxCell>
        <mxCell id="wz2QxPy03fODHcNXmg_H-141" value="" style="ellipse;whiteSpace=wrap;html=1;aspect=fixed;fillColor=#6666FF;" vertex="1" parent="wz2QxPy03fODHcNXmg_H-93">
          <mxGeometry x="323" y="160" width="30" height="30" as="geometry" />
        </mxCell>
        <mxCell id="wz2QxPy03fODHcNXmg_H-142" value="" style="ellipse;whiteSpace=wrap;html=1;aspect=fixed;fillColor=#6666FF;" vertex="1" parent="wz2QxPy03fODHcNXmg_H-93">
          <mxGeometry x="428" y="160" width="30" height="30" as="geometry" />
        </mxCell>
        <mxCell id="wz2QxPy03fODHcNXmg_H-143" value="" style="ellipse;whiteSpace=wrap;html=1;aspect=fixed;fillColor=#FF0000;" vertex="1" parent="wz2QxPy03fODHcNXmg_H-93">
          <mxGeometry x="428" y="225" width="30" height="30" as="geometry" />
        </mxCell>
        <mxCell id="wz2QxPy03fODHcNXmg_H-144" value="" style="ellipse;whiteSpace=wrap;html=1;aspect=fixed;fillColor=#6666FF;" vertex="1" parent="wz2QxPy03fODHcNXmg_H-93">
          <mxGeometry x="428" y="300" width="30" height="30" as="geometry" />
        </mxCell>
        <mxCell id="wz2QxPy03fODHcNXmg_H-145" value="" style="ellipse;whiteSpace=wrap;html=1;aspect=fixed;fillColor=#6666FF;" vertex="1" parent="wz2QxPy03fODHcNXmg_H-93">
          <mxGeometry x="318.8600000000001" y="300" width="30" height="30" as="geometry" />
        </mxCell>
        <mxCell id="wz2QxPy03fODHcNXmg_H-146" value="" style="ellipse;whiteSpace=wrap;html=1;aspect=fixed;fillColor=#FF0000;" vertex="1" parent="wz2QxPy03fODHcNXmg_H-93">
          <mxGeometry x="208.67000000000007" y="290" width="30" height="30" as="geometry" />
        </mxCell>
        <mxCell id="wz2QxPy03fODHcNXmg_H-147" value="" style="ellipse;whiteSpace=wrap;html=1;aspect=fixed;fillColor=#FF0000;" vertex="1" parent="wz2QxPy03fODHcNXmg_H-93">
          <mxGeometry x="218.36000000000013" y="220" width="30" height="30" as="geometry" />
        </mxCell>
        <mxCell id="wz2QxPy03fODHcNXmg_H-148" value="`p_{ori}`" style="text;html=1;align=center;verticalAlign=middle;resizable=0;points=[];autosize=1;strokeColor=none;fillColor=none;" vertex="1" parent="1">
          <mxGeometry x="2444.997700312175" y="10509" width="80" height="30" as="geometry" />
        </mxCell>
        <mxCell id="wz2QxPy03fODHcNXmg_H-149" value="" style="ellipse;whiteSpace=wrap;html=1;aspect=fixed;fillColor=#f8cecc;strokeColor=#b85450;" vertex="1" parent="1">
          <mxGeometry x="2499.998574401665" y="10491" width="30" height="30" as="geometry" />
        </mxCell>
        <mxCell id="wz2QxPy03fODHcNXmg_H-150" value="`p_{ori}=-p_{center}`" style="text;html=1;align=center;verticalAlign=middle;resizable=0;points=[];autosize=1;strokeColor=none;fillColor=none;" vertex="1" parent="1">
          <mxGeometry x="2481" y="10590" width="140" height="30" as="geometry" />
        </mxCell>
        <mxCell id="wz2QxPy03fODHcNXmg_H-151" value="&lt;div style=&quot;color: #cccccc;background-color: #1f1f1f;font-family: &#39;JetBrains Mono&#39;, &#39;Droid Sans Mono&#39;, &#39;monospace&#39;, monospace;font-weight: normal;font-size: 14px;line-height: 19px;white-space: pre;&quot;&gt;&lt;div&gt;&lt;span style=&quot;color: #9cdcfe;&quot;&gt;centerCubeI&lt;/span&gt;&lt;span style=&quot;color: #d4d4d4;&quot;&gt;++&lt;/span&gt;&lt;span style=&quot;color: #cccccc;&quot;&gt;;&lt;/span&gt;&lt;/div&gt;&lt;div&gt;&lt;span style=&quot;color: #9cdcfe;&quot;&gt;origin_&lt;/span&gt;&lt;span style=&quot;color: #cccccc;&quot;&gt;.&lt;/span&gt;&lt;span style=&quot;color: #dcdcaa;&quot;&gt;x&lt;/span&gt;&lt;span style=&quot;color: #cccccc;&quot;&gt;() &lt;/span&gt;&lt;span style=&quot;color: #d4d4d4;&quot;&gt;=&lt;/span&gt;&lt;span style=&quot;color: #cccccc;&quot;&gt; &lt;/span&gt;&lt;span style=&quot;color: #9cdcfe;&quot;&gt;origin_&lt;/span&gt;&lt;span style=&quot;color: #cccccc;&quot;&gt;.&lt;/span&gt;&lt;span style=&quot;color: #dcdcaa;&quot;&gt;x&lt;/span&gt;&lt;span style=&quot;color: #cccccc;&quot;&gt;() &lt;/span&gt;&lt;span style=&quot;color: #d4d4d4;&quot;&gt;+&lt;/span&gt;&lt;span style=&quot;color: #cccccc;&quot;&gt; &lt;/span&gt;&lt;span style=&quot;color: #b5cea8;&quot;&gt;1&lt;/span&gt;&lt;span style=&quot;color: #cccccc;&quot;&gt;;&lt;/span&gt;&lt;/div&gt;&lt;/div&gt;" style="text;whiteSpace=wrap;html=1;" vertex="1" parent="1">
          <mxGeometry x="2180.81" y="10710" width="390" height="60" as="geometry" />
        </mxCell>
        <mxCell id="wz2QxPy03fODHcNXmg_H-152" value="" style="group" connectable="0" vertex="1" parent="1">
          <mxGeometry x="2895.0042767950054" y="10790" width="286.99572320499465" height="420" as="geometry" />
        </mxCell>
        <mxCell id="wz2QxPy03fODHcNXmg_H-153" value="" style="shape=cube;whiteSpace=wrap;html=1;boundedLbl=1;backgroundOutline=1;darkOpacity=0.05;darkOpacity2=0.1;dashed=1;" vertex="1" parent="wz2QxPy03fODHcNXmg_H-152">
          <mxGeometry x="2.5057232049948652" y="280" width="128" height="90" as="geometry" />
        </mxCell>
        <mxCell id="wz2QxPy03fODHcNXmg_H-154" value="" style="shape=cube;whiteSpace=wrap;html=1;boundedLbl=1;backgroundOutline=1;darkOpacity=0.05;darkOpacity2=0.1;dashed=1;" vertex="1" parent="wz2QxPy03fODHcNXmg_H-152">
          <mxGeometry x="10.505723204994865" y="211" width="120" height="90" as="geometry" />
        </mxCell>
        <mxCell id="wz2QxPy03fODHcNXmg_H-155" value="" style="shape=cube;whiteSpace=wrap;html=1;boundedLbl=1;backgroundOutline=1;darkOpacity=0.05;darkOpacity2=0.1;dashed=1;" vertex="1" parent="wz2QxPy03fODHcNXmg_H-152">
          <mxGeometry x="0.5078043704475022" y="140" width="129.99791883454733" height="90" as="geometry" />
        </mxCell>
        <mxCell id="wz2QxPy03fODHcNXmg_H-156" value="" style="shape=cube;whiteSpace=wrap;html=1;boundedLbl=1;backgroundOutline=1;darkOpacity=0.05;darkOpacity2=0.1;dashed=1;" vertex="1" parent="wz2QxPy03fODHcNXmg_H-152">
          <mxGeometry y="70" width="129.99791883454733" height="90" as="geometry" />
        </mxCell>
        <mxCell id="wz2QxPy03fODHcNXmg_H-157" value="" style="shape=cube;whiteSpace=wrap;html=1;boundedLbl=1;backgroundOutline=1;darkOpacity=0.05;darkOpacity2=0.1;dashed=1;" vertex="1" parent="wz2QxPy03fODHcNXmg_H-152">
          <mxGeometry width="129.99791883454733" height="90" as="geometry" />
        </mxCell>
        <mxCell id="wz2QxPy03fODHcNXmg_H-158" value="" style="shape=cube;whiteSpace=wrap;html=1;boundedLbl=1;backgroundOutline=1;darkOpacity=0.05;darkOpacity2=0.1;dashed=1;" vertex="1" parent="wz2QxPy03fODHcNXmg_H-152">
          <mxGeometry x="22.995723204994647" y="300" width="128" height="90" as="geometry" />
        </mxCell>
        <mxCell id="wz2QxPy03fODHcNXmg_H-159" value="" style="shape=cube;whiteSpace=wrap;html=1;boundedLbl=1;backgroundOutline=1;darkOpacity=0.05;darkOpacity2=0.1;dashed=1;" vertex="1" parent="wz2QxPy03fODHcNXmg_H-152">
          <mxGeometry x="30.995723204994647" y="231" width="120" height="90" as="geometry" />
        </mxCell>
        <mxCell id="wz2QxPy03fODHcNXmg_H-160" value="" style="shape=cube;whiteSpace=wrap;html=1;boundedLbl=1;backgroundOutline=1;darkOpacity=0.05;darkOpacity2=0.1;dashed=1;" vertex="1" parent="wz2QxPy03fODHcNXmg_H-152">
          <mxGeometry x="20.997804370447284" y="160" width="129.99791883454733" height="90" as="geometry" />
        </mxCell>
        <mxCell id="wz2QxPy03fODHcNXmg_H-161" value="" style="shape=cube;whiteSpace=wrap;html=1;boundedLbl=1;backgroundOutline=1;darkOpacity=0.05;darkOpacity2=0.1;dashed=1;" vertex="1" parent="wz2QxPy03fODHcNXmg_H-152">
          <mxGeometry x="20.48999999999978" y="90" width="129.99791883454733" height="90" as="geometry" />
        </mxCell>
        <mxCell id="wz2QxPy03fODHcNXmg_H-162" value="" style="shape=cube;whiteSpace=wrap;html=1;boundedLbl=1;backgroundOutline=1;darkOpacity=0.05;darkOpacity2=0.1;dashed=1;" vertex="1" parent="wz2QxPy03fODHcNXmg_H-152">
          <mxGeometry x="20.48999999999978" y="20" width="129.99791883454733" height="90" as="geometry" />
        </mxCell>
        <mxCell id="wz2QxPy03fODHcNXmg_H-163" value="" style="shape=cube;whiteSpace=wrap;html=1;boundedLbl=1;backgroundOutline=1;darkOpacity=0.05;darkOpacity2=0.1;dashed=1;" vertex="1" parent="wz2QxPy03fODHcNXmg_H-152">
          <mxGeometry x="40.74572320499465" y="319" width="128" height="90" as="geometry" />
        </mxCell>
        <mxCell id="wz2QxPy03fODHcNXmg_H-164" value="" style="shape=cube;whiteSpace=wrap;html=1;boundedLbl=1;backgroundOutline=1;darkOpacity=0.05;darkOpacity2=0.1;dashed=1;" vertex="1" parent="wz2QxPy03fODHcNXmg_H-152">
          <mxGeometry x="40.75" y="250" width="129.25" height="90" as="geometry" />
        </mxCell>
        <mxCell id="wz2QxPy03fODHcNXmg_H-165" value="" style="shape=cube;whiteSpace=wrap;html=1;boundedLbl=1;backgroundOutline=1;darkOpacity=0.05;darkOpacity2=0.1;dashed=1;" vertex="1" parent="wz2QxPy03fODHcNXmg_H-152">
          <mxGeometry x="38.747804370447284" y="179" width="129.99791883454733" height="90" as="geometry" />
        </mxCell>
        <mxCell id="wz2QxPy03fODHcNXmg_H-166" value="" style="shape=cube;whiteSpace=wrap;html=1;boundedLbl=1;backgroundOutline=1;darkOpacity=0.05;darkOpacity2=0.1;dashed=1;" vertex="1" parent="wz2QxPy03fODHcNXmg_H-152">
          <mxGeometry x="38.23999999999978" y="109" width="129.99791883454733" height="90" as="geometry" />
        </mxCell>
        <mxCell id="wz2QxPy03fODHcNXmg_H-167" value="" style="shape=cube;whiteSpace=wrap;html=1;boundedLbl=1;backgroundOutline=1;darkOpacity=0.05;darkOpacity2=0.1;dashed=1;" vertex="1" parent="wz2QxPy03fODHcNXmg_H-152">
          <mxGeometry x="38.23999999999978" y="39" width="129.99791883454733" height="90" as="geometry" />
        </mxCell>
        <mxCell id="wz2QxPy03fODHcNXmg_H-168" value="" style="shape=cube;whiteSpace=wrap;html=1;boundedLbl=1;backgroundOutline=1;darkOpacity=0.05;darkOpacity2=0.1;dashed=1;" vertex="1" parent="1">
          <mxGeometry x="2781.5" y="11081" width="128" height="90" as="geometry" />
        </mxCell>
        <mxCell id="wz2QxPy03fODHcNXmg_H-169" value="" style="shape=cube;whiteSpace=wrap;html=1;boundedLbl=1;backgroundOutline=1;darkOpacity=0.05;darkOpacity2=0.1;dashed=1;" vertex="1" parent="1">
          <mxGeometry x="2779" y="10990" width="128" height="90" as="geometry" />
        </mxCell>
        <mxCell id="wz2QxPy03fODHcNXmg_H-170" value="" style="shape=cube;whiteSpace=wrap;html=1;boundedLbl=1;backgroundOutline=1;darkOpacity=0.05;darkOpacity2=0.1;dashed=1;" vertex="1" parent="1">
          <mxGeometry x="2801" y="11101" width="128" height="90" as="geometry" />
        </mxCell>
        <mxCell id="wz2QxPy03fODHcNXmg_H-171" value="" style="shape=cube;whiteSpace=wrap;html=1;boundedLbl=1;backgroundOutline=1;darkOpacity=0.05;darkOpacity2=0.1;dashed=1;" vertex="1" parent="1">
          <mxGeometry x="2801" y="11031" width="128" height="90" as="geometry" />
        </mxCell>
        <mxCell id="wz2QxPy03fODHcNXmg_H-172" value="" style="shape=cube;whiteSpace=wrap;html=1;boundedLbl=1;backgroundOutline=1;darkOpacity=0.05;darkOpacity2=0.1;dashed=1;" vertex="1" parent="1">
          <mxGeometry x="2827" y="11110" width="128" height="90" as="geometry" />
        </mxCell>
        <mxCell id="wz2QxPy03fODHcNXmg_H-173" value="" style="shape=cube;whiteSpace=wrap;html=1;boundedLbl=1;backgroundOutline=1;darkOpacity=0.05;darkOpacity2=0.1;dashed=1;" vertex="1" parent="1">
          <mxGeometry x="2821" y="11051" width="128" height="90" as="geometry" />
        </mxCell>
        <mxCell id="wz2QxPy03fODHcNXmg_H-174" value="" style="shape=cube;whiteSpace=wrap;html=1;boundedLbl=1;backgroundOutline=1;darkOpacity=0.05;darkOpacity2=0.1;dashed=1;" vertex="1" parent="1">
          <mxGeometry x="2787.5" y="11081" width="128" height="90" as="geometry" />
        </mxCell>
        <mxCell id="wz2QxPy03fODHcNXmg_H-175" value="" style="shape=cube;whiteSpace=wrap;html=1;boundedLbl=1;backgroundOutline=1;darkOpacity=0.05;darkOpacity2=0.1;dashed=1;" vertex="1" parent="1">
          <mxGeometry x="2679.5" y="11081" width="128" height="90" as="geometry" />
        </mxCell>
        <mxCell id="wz2QxPy03fODHcNXmg_H-176" value="" style="shape=cube;whiteSpace=wrap;html=1;boundedLbl=1;backgroundOutline=1;darkOpacity=0.05;darkOpacity2=0.1;dashed=1;" vertex="1" parent="1">
          <mxGeometry x="2785" y="10990" width="128" height="90" as="geometry" />
        </mxCell>
        <mxCell id="wz2QxPy03fODHcNXmg_H-177" value="" style="shape=cube;whiteSpace=wrap;html=1;boundedLbl=1;backgroundOutline=1;darkOpacity=0.05;darkOpacity2=0.1;dashed=1;" vertex="1" parent="1">
          <mxGeometry x="2677" y="10990" width="128" height="90" as="geometry" />
        </mxCell>
        <mxCell id="wz2QxPy03fODHcNXmg_H-178" value="" style="shape=cube;whiteSpace=wrap;html=1;boundedLbl=1;backgroundOutline=1;darkOpacity=0.05;darkOpacity2=0.1;dashed=1;" vertex="1" parent="1">
          <mxGeometry x="2807" y="11101" width="128" height="90" as="geometry" />
        </mxCell>
        <mxCell id="wz2QxPy03fODHcNXmg_H-179" value="" style="shape=cube;whiteSpace=wrap;html=1;boundedLbl=1;backgroundOutline=1;darkOpacity=0.05;darkOpacity2=0.1;dashed=1;" vertex="1" parent="1">
          <mxGeometry x="2699" y="11101" width="128" height="90" as="geometry" />
        </mxCell>
        <mxCell id="wz2QxPy03fODHcNXmg_H-180" value="" style="shape=cube;whiteSpace=wrap;html=1;boundedLbl=1;backgroundOutline=1;darkOpacity=0.05;darkOpacity2=0.1;dashed=1;" vertex="1" parent="1">
          <mxGeometry x="2807" y="11031" width="128" height="90" as="geometry" />
        </mxCell>
        <mxCell id="wz2QxPy03fODHcNXmg_H-181" value="" style="shape=cube;whiteSpace=wrap;html=1;boundedLbl=1;backgroundOutline=1;darkOpacity=0.05;darkOpacity2=0.1;dashed=1;" vertex="1" parent="1">
          <mxGeometry x="2699" y="11031" width="128" height="90" as="geometry" />
        </mxCell>
        <mxCell id="wz2QxPy03fODHcNXmg_H-182" value="" style="shape=cube;whiteSpace=wrap;html=1;boundedLbl=1;backgroundOutline=1;darkOpacity=0.05;darkOpacity2=0.1;dashed=1;" vertex="1" parent="1">
          <mxGeometry x="2827" y="11110" width="128" height="90" as="geometry" />
        </mxCell>
        <mxCell id="wz2QxPy03fODHcNXmg_H-183" value="" style="shape=cube;whiteSpace=wrap;html=1;boundedLbl=1;backgroundOutline=1;darkOpacity=0.05;darkOpacity2=0.1;dashed=1;" vertex="1" parent="1">
          <mxGeometry x="2725" y="11110" width="130" height="90" as="geometry" />
        </mxCell>
        <mxCell id="wz2QxPy03fODHcNXmg_H-184" value="" style="shape=cube;whiteSpace=wrap;html=1;boundedLbl=1;backgroundOutline=1;darkOpacity=0.05;darkOpacity2=0.1;dashed=1;" vertex="1" parent="1">
          <mxGeometry x="2835" y="11041" width="120" height="90" as="geometry" />
        </mxCell>
        <mxCell id="wz2QxPy03fODHcNXmg_H-185" value="" style="shape=cube;whiteSpace=wrap;html=1;boundedLbl=1;backgroundOutline=1;darkOpacity=0.05;darkOpacity2=0.1;dashed=1;" vertex="1" parent="1">
          <mxGeometry x="2727" y="11041" width="128" height="90" as="geometry" />
        </mxCell>
        <mxCell id="wz2QxPy03fODHcNXmg_H-186" value="" style="shape=cube;whiteSpace=wrap;html=1;boundedLbl=1;backgroundOutline=1;darkOpacity=0.05;darkOpacity2=0.1;dashed=1;" vertex="1" parent="1">
          <mxGeometry x="2577.5" y="11081" width="128" height="90" as="geometry" />
        </mxCell>
        <mxCell id="wz2QxPy03fODHcNXmg_H-187" value="" style="shape=cube;whiteSpace=wrap;html=1;boundedLbl=1;backgroundOutline=1;darkOpacity=0.05;darkOpacity2=0.1;dashed=1;" vertex="1" parent="1">
          <mxGeometry x="2467.5" y="11060" width="122.5" height="100" as="geometry" />
        </mxCell>
        <mxCell id="wz2QxPy03fODHcNXmg_H-188" value="" style="shape=cube;whiteSpace=wrap;html=1;boundedLbl=1;backgroundOutline=1;darkOpacity=0.05;darkOpacity2=0.1;dashed=1;" vertex="1" parent="1">
          <mxGeometry x="2575" y="10990" width="128" height="90" as="geometry" />
        </mxCell>
        <mxCell id="wz2QxPy03fODHcNXmg_H-189" value="" style="shape=cube;whiteSpace=wrap;html=1;boundedLbl=1;backgroundOutline=1;darkOpacity=0.05;darkOpacity2=0.1;dashed=1;" vertex="1" parent="1">
          <mxGeometry x="2467.5" y="10990" width="128" height="90" as="geometry" />
        </mxCell>
        <mxCell id="wz2QxPy03fODHcNXmg_H-190" value="" style="shape=cube;whiteSpace=wrap;html=1;boundedLbl=1;backgroundOutline=1;darkOpacity=0.05;darkOpacity2=0.1;dashed=1;" vertex="1" parent="1">
          <mxGeometry x="2597" y="11101" width="128" height="90" as="geometry" />
        </mxCell>
        <mxCell id="wz2QxPy03fODHcNXmg_H-191" value="" style="shape=cube;whiteSpace=wrap;html=1;boundedLbl=1;backgroundOutline=1;darkOpacity=0.05;darkOpacity2=0.1;dashed=1;" vertex="1" parent="1">
          <mxGeometry x="2489.5" y="11090" width="128" height="90" as="geometry" />
        </mxCell>
        <mxCell id="wz2QxPy03fODHcNXmg_H-192" value="" style="shape=cube;whiteSpace=wrap;html=1;boundedLbl=1;backgroundOutline=1;darkOpacity=0.05;darkOpacity2=0.1;dashed=1;" vertex="1" parent="1">
          <mxGeometry x="2597" y="11031" width="128" height="90" as="geometry" />
        </mxCell>
        <mxCell id="wz2QxPy03fODHcNXmg_H-193" value="" style="shape=cube;whiteSpace=wrap;html=1;boundedLbl=1;backgroundOutline=1;darkOpacity=0.05;darkOpacity2=0.1;dashed=1;" vertex="1" parent="1">
          <mxGeometry x="2490" y="11020" width="135.5" height="90" as="geometry" />
        </mxCell>
        <mxCell id="wz2QxPy03fODHcNXmg_H-194" value="" style="shape=cube;whiteSpace=wrap;html=1;boundedLbl=1;backgroundOutline=1;darkOpacity=0.05;darkOpacity2=0.1;dashed=1;" vertex="1" parent="1">
          <mxGeometry x="2617.5" y="11110" width="128" height="90" as="geometry" />
        </mxCell>
        <mxCell id="wz2QxPy03fODHcNXmg_H-195" value="" style="shape=cube;whiteSpace=wrap;html=1;boundedLbl=1;backgroundOutline=1;darkOpacity=0.05;darkOpacity2=0.1;dashed=1;" vertex="1" parent="1">
          <mxGeometry x="2510" y="11110" width="128" height="90" as="geometry" />
        </mxCell>
        <mxCell id="wz2QxPy03fODHcNXmg_H-196" value="" style="shape=cube;whiteSpace=wrap;html=1;boundedLbl=1;backgroundOutline=1;darkOpacity=0.05;darkOpacity2=0.1;dashed=1;" vertex="1" parent="1">
          <mxGeometry x="2617.5" y="11041" width="128" height="90" as="geometry" />
        </mxCell>
        <mxCell id="wz2QxPy03fODHcNXmg_H-197" value="" style="shape=cube;whiteSpace=wrap;html=1;boundedLbl=1;backgroundOutline=1;darkOpacity=0.05;darkOpacity2=0.1;dashed=1;" vertex="1" parent="1">
          <mxGeometry x="2510" y="11041" width="128" height="90" as="geometry" />
        </mxCell>
        <mxCell id="wz2QxPy03fODHcNXmg_H-198" value="W&lt;span class=&quot;eusoft-eudic-chrome-extension-translate-content&quot;&gt;&lt;/span&gt;" style="text;html=1;align=center;verticalAlign=middle;resizable=0;points=[];autosize=1;strokeColor=none;fillColor=none;" vertex="1" parent="1">
          <mxGeometry x="2350" y="11170" width="30" height="30" as="geometry" />
        </mxCell>
        <mxCell id="wz2QxPy03fODHcNXmg_H-199" value="" style="endArrow=classic;startArrow=classic;html=1;rounded=0;" edge="1" parent="1">
          <mxGeometry width="50" height="50" relative="1" as="geometry">
            <mxPoint x="2532" y="11240" as="sourcePoint" />
            <mxPoint x="3065" y="11240" as="targetPoint" />
          </mxGeometry>
        </mxCell>
        <mxCell id="wz2QxPy03fODHcNXmg_H-200" value="" style="endArrow=none;html=1;rounded=0;entryX=0;entryY=0;entryDx=20;entryDy=90;entryPerimeter=0;" edge="1" parent="1">
          <mxGeometry width="50" height="50" relative="1" as="geometry">
            <mxPoint x="2530" y="11270" as="sourcePoint" />
            <mxPoint x="2530" y="11210" as="targetPoint" />
          </mxGeometry>
        </mxCell>
        <mxCell id="wz2QxPy03fODHcNXmg_H-201" value="" style="endArrow=none;html=1;rounded=0;entryX=0;entryY=0;entryDx=20;entryDy=90;entryPerimeter=0;" edge="1" parent="1">
          <mxGeometry width="50" height="50" relative="1" as="geometry">
            <mxPoint x="3065" y="11259" as="sourcePoint" />
            <mxPoint x="3065" y="11199" as="targetPoint" />
          </mxGeometry>
        </mxCell>
        <mxCell id="wz2QxPy03fODHcNXmg_H-202" value="" style="group" connectable="0" vertex="1" parent="1">
          <mxGeometry x="2370" y="11140" width="40" height="40" as="geometry" />
        </mxCell>
        <mxCell id="wz2QxPy03fODHcNXmg_H-203" value="" style="endArrow=classic;html=1;rounded=0;" edge="1" parent="wz2QxPy03fODHcNXmg_H-202">
          <mxGeometry width="50" height="50" relative="1" as="geometry">
            <mxPoint y="40" as="sourcePoint" />
            <mxPoint as="targetPoint" />
          </mxGeometry>
        </mxCell>
        <mxCell id="wz2QxPy03fODHcNXmg_H-204" value="" style="endArrow=classic;html=1;rounded=0;" edge="1" parent="wz2QxPy03fODHcNXmg_H-202">
          <mxGeometry width="50" height="50" relative="1" as="geometry">
            <mxPoint y="40" as="sourcePoint" />
            <mxPoint x="40" y="40" as="targetPoint" />
          </mxGeometry>
        </mxCell>
        <mxCell id="wz2QxPy03fODHcNXmg_H-205" value="" style="endArrow=classic;html=1;rounded=0;" edge="1" parent="wz2QxPy03fODHcNXmg_H-202">
          <mxGeometry width="50" height="50" relative="1" as="geometry">
            <mxPoint y="40" as="sourcePoint" />
            <mxPoint x="30" y="10" as="targetPoint" />
          </mxGeometry>
        </mxCell>
        <mxCell id="wz2QxPy03fODHcNXmg_H-206" value="&lt;div style=&quot;color: #cccccc;background-color: #1f1f1f;font-family: &#39;JetBrains Mono&#39;, &#39;Droid Sans Mono&#39;, &#39;monospace&#39;, monospace;font-weight: normal;font-size: 14px;line-height: 19px;white-space: pre;&quot;&gt;&lt;div&gt;&lt;span style=&quot;color: #9cdcfe;&quot;&gt;voxelResulation&lt;/span&gt;&lt;/div&gt;&lt;/div&gt;" style="text;whiteSpace=wrap;html=1;" vertex="1" parent="1">
          <mxGeometry x="2683" y="11260" width="160" height="40" as="geometry" />
        </mxCell>
        <mxCell id="wz2QxPy03fODHcNXmg_H-207" value="" style="group" connectable="0" vertex="1" parent="1">
          <mxGeometry x="2467.5" y="10790" width="488" height="270" as="geometry" />
        </mxCell>
        <mxCell id="wz2QxPy03fODHcNXmg_H-208" value="" style="shape=cube;whiteSpace=wrap;html=1;boundedLbl=1;backgroundOutline=1;darkOpacity=0.05;darkOpacity2=0.1;dashed=1;" vertex="1" parent="wz2QxPy03fODHcNXmg_H-207">
          <mxGeometry x="317.885535900104" y="140" width="129.99791883454733" height="90" as="geometry" />
        </mxCell>
        <mxCell id="wz2QxPy03fODHcNXmg_H-209" value="" style="shape=cube;whiteSpace=wrap;html=1;boundedLbl=1;backgroundOutline=1;darkOpacity=0.05;darkOpacity2=0.1;dashed=1;" vertex="1" parent="wz2QxPy03fODHcNXmg_H-207">
          <mxGeometry x="317.37773152965656" y="70" width="129.99791883454733" height="90" as="geometry" />
        </mxCell>
        <mxCell id="wz2QxPy03fODHcNXmg_H-210" value="" style="shape=cube;whiteSpace=wrap;html=1;boundedLbl=1;backgroundOutline=1;darkOpacity=0.05;darkOpacity2=0.1;dashed=1;" vertex="1" parent="wz2QxPy03fODHcNXmg_H-207">
          <mxGeometry x="317.37773152965656" width="129.99791883454733" height="90" as="geometry" />
        </mxCell>
        <mxCell id="wz2QxPy03fODHcNXmg_H-211" value="" style="shape=cube;whiteSpace=wrap;html=1;boundedLbl=1;backgroundOutline=1;darkOpacity=0.05;darkOpacity2=0.1;dashed=1;" vertex="1" parent="wz2QxPy03fODHcNXmg_H-207">
          <mxGeometry x="337.6899063475546" y="160" width="129.99791883454733" height="90" as="geometry" />
        </mxCell>
        <mxCell id="wz2QxPy03fODHcNXmg_H-212" value="" style="shape=cube;whiteSpace=wrap;html=1;boundedLbl=1;backgroundOutline=1;darkOpacity=0.05;darkOpacity2=0.1;dashed=1;" vertex="1" parent="wz2QxPy03fODHcNXmg_H-207">
          <mxGeometry x="337.18210197710715" y="90" width="129.99791883454733" height="90" as="geometry" />
        </mxCell>
        <mxCell id="wz2QxPy03fODHcNXmg_H-213" value="" style="shape=cube;whiteSpace=wrap;html=1;boundedLbl=1;backgroundOutline=1;darkOpacity=0.05;darkOpacity2=0.1;dashed=1;" vertex="1" parent="wz2QxPy03fODHcNXmg_H-207">
          <mxGeometry x="337.18210197710715" y="20" width="129.99791883454733" height="90" as="geometry" />
        </mxCell>
        <mxCell id="wz2QxPy03fODHcNXmg_H-214" value="" style="shape=cube;whiteSpace=wrap;html=1;boundedLbl=1;backgroundOutline=1;darkOpacity=0.05;darkOpacity2=0.1;dashed=1;" vertex="1" parent="wz2QxPy03fODHcNXmg_H-207">
          <mxGeometry x="358.00208116545264" y="180" width="129.99791883454733" height="90" as="geometry" />
        </mxCell>
        <mxCell id="wz2QxPy03fODHcNXmg_H-215" value="" style="shape=cube;whiteSpace=wrap;html=1;boundedLbl=1;backgroundOutline=1;darkOpacity=0.05;darkOpacity2=0.1;dashed=1;" vertex="1" parent="wz2QxPy03fODHcNXmg_H-207">
          <mxGeometry x="357.4942767950052" y="110" width="129.99791883454733" height="90" as="geometry" />
        </mxCell>
        <mxCell id="wz2QxPy03fODHcNXmg_H-216" value="" style="shape=cube;whiteSpace=wrap;html=1;boundedLbl=1;backgroundOutline=1;darkOpacity=0.05;darkOpacity2=0.1;dashed=1;" vertex="1" parent="wz2QxPy03fODHcNXmg_H-207">
          <mxGeometry x="357.4942767950052" y="40" width="129.99791883454733" height="90" as="geometry" />
        </mxCell>
        <mxCell id="wz2QxPy03fODHcNXmg_H-217" value="" style="shape=cube;whiteSpace=wrap;html=1;boundedLbl=1;backgroundOutline=1;darkOpacity=0.05;darkOpacity2=0.1;dashed=1;" vertex="1" parent="wz2QxPy03fODHcNXmg_H-207">
          <mxGeometry x="218.86368366285117" y="140" width="129.99791883454733" height="90" as="geometry" />
        </mxCell>
        <mxCell id="wz2QxPy03fODHcNXmg_H-218" value="" style="shape=cube;whiteSpace=wrap;html=1;boundedLbl=1;backgroundOutline=1;darkOpacity=0.05;darkOpacity2=0.1;dashed=1;" vertex="1" parent="wz2QxPy03fODHcNXmg_H-207">
          <mxGeometry x="110.19354838709677" y="140" width="129.99791883454733" height="90" as="geometry" />
        </mxCell>
        <mxCell id="wz2QxPy03fODHcNXmg_H-219" value="" style="shape=cube;whiteSpace=wrap;html=1;boundedLbl=1;backgroundOutline=1;darkOpacity=0.05;darkOpacity2=0.1;dashed=1;" vertex="1" parent="wz2QxPy03fODHcNXmg_H-207">
          <mxGeometry x="0.5078043704474505" y="140" width="129.99791883454733" height="90" as="geometry" />
        </mxCell>
        <mxCell id="wz2QxPy03fODHcNXmg_H-220" value="" style="shape=cube;whiteSpace=wrap;html=1;boundedLbl=1;backgroundOutline=1;darkOpacity=0.05;darkOpacity2=0.1;dashed=1;" vertex="1" parent="wz2QxPy03fODHcNXmg_H-207">
          <mxGeometry x="218.35587929240373" y="70" width="129.99791883454733" height="90" as="geometry" />
        </mxCell>
        <mxCell id="wz2QxPy03fODHcNXmg_H-221" value="" style="shape=cube;whiteSpace=wrap;html=1;boundedLbl=1;backgroundOutline=1;darkOpacity=0.05;darkOpacity2=0.1;dashed=1;" vertex="1" parent="wz2QxPy03fODHcNXmg_H-207">
          <mxGeometry x="109.68574401664931" y="70" width="129.99791883454733" height="90" as="geometry" />
        </mxCell>
        <mxCell id="wz2QxPy03fODHcNXmg_H-222" value="" style="shape=cube;whiteSpace=wrap;html=1;boundedLbl=1;backgroundOutline=1;darkOpacity=0.05;darkOpacity2=0.1;dashed=1;" vertex="1" parent="wz2QxPy03fODHcNXmg_H-207">
          <mxGeometry y="70" width="129.99791883454733" height="90" as="geometry" />
        </mxCell>
        <mxCell id="wz2QxPy03fODHcNXmg_H-223" value="" style="shape=cube;whiteSpace=wrap;html=1;boundedLbl=1;backgroundOutline=1;darkOpacity=0.05;darkOpacity2=0.1;dashed=1;" vertex="1" parent="wz2QxPy03fODHcNXmg_H-207">
          <mxGeometry x="218.35587929240373" width="129.99791883454733" height="90" as="geometry" />
        </mxCell>
        <mxCell id="wz2QxPy03fODHcNXmg_H-224" value="" style="shape=cube;whiteSpace=wrap;html=1;boundedLbl=1;backgroundOutline=1;darkOpacity=0.05;darkOpacity2=0.1;dashed=1;" vertex="1" parent="wz2QxPy03fODHcNXmg_H-207">
          <mxGeometry x="109.68574401664931" width="129.99791883454733" height="90" as="geometry" />
        </mxCell>
        <mxCell id="wz2QxPy03fODHcNXmg_H-225" value="" style="shape=cube;whiteSpace=wrap;html=1;boundedLbl=1;backgroundOutline=1;darkOpacity=0.05;darkOpacity2=0.1;dashed=1;" vertex="1" parent="wz2QxPy03fODHcNXmg_H-207">
          <mxGeometry width="129.99791883454733" height="90" as="geometry" />
        </mxCell>
        <mxCell id="wz2QxPy03fODHcNXmg_H-226" value="" style="shape=cube;whiteSpace=wrap;html=1;boundedLbl=1;backgroundOutline=1;darkOpacity=0.05;darkOpacity2=0.1;dashed=1;" vertex="1" parent="wz2QxPy03fODHcNXmg_H-207">
          <mxGeometry x="238.66805411030174" y="160" width="129.99791883454733" height="90" as="geometry" />
        </mxCell>
        <mxCell id="wz2QxPy03fODHcNXmg_H-227" value="" style="shape=cube;whiteSpace=wrap;html=1;boundedLbl=1;backgroundOutline=1;darkOpacity=0.05;darkOpacity2=0.1;dashed=1;" vertex="1" parent="wz2QxPy03fODHcNXmg_H-207">
          <mxGeometry x="129.99791883454733" y="160" width="129.99791883454733" height="90" as="geometry" />
        </mxCell>
        <mxCell id="wz2QxPy03fODHcNXmg_H-228" value="" style="shape=cube;whiteSpace=wrap;html=1;boundedLbl=1;backgroundOutline=1;darkOpacity=0.05;darkOpacity2=0.1;dashed=1;" vertex="1" parent="wz2QxPy03fODHcNXmg_H-207">
          <mxGeometry x="20.312174817898022" y="160" width="129.99791883454733" height="90" as="geometry" />
        </mxCell>
        <mxCell id="wz2QxPy03fODHcNXmg_H-229" value="" style="shape=cube;whiteSpace=wrap;html=1;boundedLbl=1;backgroundOutline=1;darkOpacity=0.05;darkOpacity2=0.1;dashed=1;" vertex="1" parent="wz2QxPy03fODHcNXmg_H-207">
          <mxGeometry x="238.1602497398543" y="90" width="129.99791883454733" height="90" as="geometry" />
        </mxCell>
        <mxCell id="wz2QxPy03fODHcNXmg_H-230" value="" style="shape=cube;whiteSpace=wrap;html=1;boundedLbl=1;backgroundOutline=1;darkOpacity=0.05;darkOpacity2=0.1;dashed=1;" vertex="1" parent="wz2QxPy03fODHcNXmg_H-207">
          <mxGeometry x="129.4901144640999" y="90" width="129.99791883454733" height="90" as="geometry" />
        </mxCell>
        <mxCell id="wz2QxPy03fODHcNXmg_H-231" value="" style="shape=cube;whiteSpace=wrap;html=1;boundedLbl=1;backgroundOutline=1;darkOpacity=0.05;darkOpacity2=0.1;dashed=1;" vertex="1" parent="wz2QxPy03fODHcNXmg_H-207">
          <mxGeometry x="19.80437044745057" y="90" width="129.99791883454733" height="90" as="geometry" />
        </mxCell>
        <mxCell id="wz2QxPy03fODHcNXmg_H-232" value="" style="shape=cube;whiteSpace=wrap;html=1;boundedLbl=1;backgroundOutline=1;darkOpacity=0.05;darkOpacity2=0.1;dashed=1;" vertex="1" parent="wz2QxPy03fODHcNXmg_H-207">
          <mxGeometry x="238.1602497398543" y="20" width="129.99791883454733" height="90" as="geometry" />
        </mxCell>
        <mxCell id="wz2QxPy03fODHcNXmg_H-233" value="" style="shape=cube;whiteSpace=wrap;html=1;boundedLbl=1;backgroundOutline=1;darkOpacity=0.05;darkOpacity2=0.1;dashed=1;" vertex="1" parent="wz2QxPy03fODHcNXmg_H-207">
          <mxGeometry x="129.4901144640999" y="20" width="129.99791883454733" height="90" as="geometry" />
        </mxCell>
        <mxCell id="wz2QxPy03fODHcNXmg_H-234" value="" style="shape=cube;whiteSpace=wrap;html=1;boundedLbl=1;backgroundOutline=1;darkOpacity=0.05;darkOpacity2=0.1;dashed=1;" vertex="1" parent="wz2QxPy03fODHcNXmg_H-207">
          <mxGeometry x="19.80437044745057" y="20" width="129.99791883454733" height="90" as="geometry" />
        </mxCell>
        <mxCell id="wz2QxPy03fODHcNXmg_H-235" value="" style="shape=cube;whiteSpace=wrap;html=1;boundedLbl=1;backgroundOutline=1;darkOpacity=0.05;darkOpacity2=0.1;dashed=1;" vertex="1" parent="wz2QxPy03fODHcNXmg_H-207">
          <mxGeometry x="258.9802289281998" y="180" width="129.99791883454733" height="90" as="geometry" />
        </mxCell>
        <mxCell id="wz2QxPy03fODHcNXmg_H-236" value="" style="shape=cube;whiteSpace=wrap;html=1;boundedLbl=1;backgroundOutline=1;darkOpacity=0.05;darkOpacity2=0.1;dashed=1;" vertex="1" parent="wz2QxPy03fODHcNXmg_H-207">
          <mxGeometry x="150.31009365244535" y="180" width="129.99791883454733" height="90" as="geometry" />
        </mxCell>
        <mxCell id="wz2QxPy03fODHcNXmg_H-237" value="" style="shape=cube;whiteSpace=wrap;html=1;boundedLbl=1;backgroundOutline=1;darkOpacity=0.05;darkOpacity2=0.1;dashed=1;" vertex="1" parent="wz2QxPy03fODHcNXmg_H-207">
          <mxGeometry x="40.624349635796044" y="180" width="129.99791883454733" height="90" as="geometry" />
        </mxCell>
        <mxCell id="wz2QxPy03fODHcNXmg_H-238" value="" style="shape=cube;whiteSpace=wrap;html=1;boundedLbl=1;backgroundOutline=1;darkOpacity=0.05;darkOpacity2=0.1;dashed=1;" vertex="1" parent="wz2QxPy03fODHcNXmg_H-207">
          <mxGeometry x="258.47242455775233" y="110" width="129.99791883454733" height="90" as="geometry" />
        </mxCell>
        <mxCell id="wz2QxPy03fODHcNXmg_H-239" value="" style="shape=cube;whiteSpace=wrap;html=1;boundedLbl=1;backgroundOutline=1;darkOpacity=0.05;darkOpacity2=0.1;dashed=1;" vertex="1" parent="wz2QxPy03fODHcNXmg_H-207">
          <mxGeometry x="149.8022892819979" y="110" width="129.99791883454733" height="90" as="geometry" />
        </mxCell>
        <mxCell id="wz2QxPy03fODHcNXmg_H-240" value="" style="shape=cube;whiteSpace=wrap;html=1;boundedLbl=1;backgroundOutline=1;darkOpacity=0.05;darkOpacity2=0.1;dashed=1;" vertex="1" parent="wz2QxPy03fODHcNXmg_H-207">
          <mxGeometry x="40.11654526534859" y="110" width="129.99791883454733" height="90" as="geometry" />
        </mxCell>
        <mxCell id="wz2QxPy03fODHcNXmg_H-241" value="" style="shape=cube;whiteSpace=wrap;html=1;boundedLbl=1;backgroundOutline=1;darkOpacity=0.05;darkOpacity2=0.1;dashed=1;" vertex="1" parent="wz2QxPy03fODHcNXmg_H-207">
          <mxGeometry x="258.47242455775233" y="40" width="129.99791883454733" height="90" as="geometry" />
        </mxCell>
        <mxCell id="wz2QxPy03fODHcNXmg_H-242" value="" style="shape=cube;whiteSpace=wrap;html=1;boundedLbl=1;backgroundOutline=1;darkOpacity=0.05;darkOpacity2=0.1;dashed=1;" vertex="1" parent="wz2QxPy03fODHcNXmg_H-207">
          <mxGeometry x="149.8022892819979" y="40" width="129.99791883454733" height="90" as="geometry" />
        </mxCell>
        <mxCell id="wz2QxPy03fODHcNXmg_H-243" value="" style="shape=cube;whiteSpace=wrap;html=1;boundedLbl=1;backgroundOutline=1;darkOpacity=0.05;darkOpacity2=0.1;dashed=1;" vertex="1" parent="wz2QxPy03fODHcNXmg_H-207">
          <mxGeometry x="40.11654526534859" y="40" width="129.99791883454733" height="90" as="geometry" />
        </mxCell>
        <mxCell id="wz2QxPy03fODHcNXmg_H-244" value="" style="group" connectable="0" vertex="1" parent="wz2QxPy03fODHcNXmg_H-207">
          <mxGeometry x="422.50270551508845" y="200" width="40.624349635796044" height="50" as="geometry" />
        </mxCell>
        <mxCell id="wz2QxPy03fODHcNXmg_H-245" value="" style="endArrow=classic;html=1;rounded=0;" edge="1" parent="wz2QxPy03fODHcNXmg_H-244">
          <mxGeometry width="50" height="50" relative="1" as="geometry">
            <mxPoint y="40" as="sourcePoint" />
            <mxPoint as="targetPoint" />
          </mxGeometry>
        </mxCell>
        <mxCell id="wz2QxPy03fODHcNXmg_H-246" value="" style="endArrow=classic;html=1;rounded=0;" edge="1" parent="wz2QxPy03fODHcNXmg_H-244">
          <mxGeometry width="50" height="50" relative="1" as="geometry">
            <mxPoint y="40" as="sourcePoint" />
            <mxPoint x="40.624349635796044" y="40" as="targetPoint" />
          </mxGeometry>
        </mxCell>
        <mxCell id="wz2QxPy03fODHcNXmg_H-247" value="" style="endArrow=classic;html=1;rounded=0;" edge="1" parent="wz2QxPy03fODHcNXmg_H-244">
          <mxGeometry width="50" height="50" relative="1" as="geometry">
            <mxPoint y="40" as="sourcePoint" />
            <mxPoint x="30.46826222684703" y="10" as="targetPoint" />
          </mxGeometry>
        </mxCell>
        <mxCell id="wz2QxPy03fODHcNXmg_H-248" value="" style="ellipse;whiteSpace=wrap;html=1;aspect=fixed;" vertex="1" parent="wz2QxPy03fODHcNXmg_H-244">
          <mxGeometry x="-10.004131113423625" y="20" width="30" height="30" as="geometry" />
        </mxCell>
        <mxCell id="wz2QxPy03fODHcNXmg_H-249" value="L" style="text;html=1;align=center;verticalAlign=middle;resizable=0;points=[];autosize=1;strokeColor=none;fillColor=none;" vertex="1" parent="wz2QxPy03fODHcNXmg_H-207">
          <mxGeometry x="392.5003121748179" y="240" width="30" height="30" as="geometry" />
        </mxCell>
        <mxCell id="wz2QxPy03fODHcNXmg_H-250" value="`p_{center}`" style="text;html=1;align=center;verticalAlign=middle;resizable=0;points=[];autosize=1;strokeColor=none;fillColor=none;" vertex="1" parent="wz2QxPy03fODHcNXmg_H-207">
          <mxGeometry x="402.5" y="170" width="100" height="30" as="geometry" />
        </mxCell>
        <mxCell id="wz2QxPy03fODHcNXmg_H-251" value="`p_{ori}`" style="text;html=1;align=center;verticalAlign=middle;resizable=0;points=[];autosize=1;strokeColor=none;fillColor=none;" vertex="1" parent="1">
          <mxGeometry x="2554.997700312175" y="11190" width="80" height="30" as="geometry" />
        </mxCell>
        <mxCell id="wz2QxPy03fODHcNXmg_H-252" value="" style="ellipse;whiteSpace=wrap;html=1;aspect=fixed;fillColor=#f8cecc;strokeColor=#b85450;" vertex="1" parent="1">
          <mxGeometry x="2622.998574401665" y="11190" width="30" height="30" as="geometry" />
        </mxCell>
        <mxCell id="wz2QxPy03fODHcNXmg_H-253" value="`p_{ori}=-p_{center}`" style="text;html=1;align=center;verticalAlign=middle;resizable=0;points=[];autosize=1;strokeColor=none;fillColor=none;" vertex="1" parent="1">
          <mxGeometry x="2496" y="11280" width="140" height="30" as="geometry" />
        </mxCell>
        <mxCell id="wz2QxPy03fODHcNXmg_H-254" value="" style="shape=flexArrow;endArrow=classic;html=1;rounded=0;" edge="1" parent="1">
          <mxGeometry width="50" height="50" relative="1" as="geometry">
            <mxPoint x="2729.52" y="10630" as="sourcePoint" />
            <mxPoint x="2729.52" y="10750" as="targetPoint" />
          </mxGeometry>
        </mxCell>
        <mxCell id="wz2QxPy03fODHcNXmg_H-255" value="往右移动" style="text;html=1;align=center;verticalAlign=middle;resizable=0;points=[];autosize=1;strokeColor=none;fillColor=none;" vertex="1" parent="1">
          <mxGeometry x="2755" y="10670" width="70" height="30" as="geometry" />
        </mxCell>
        <mxCell id="wz2QxPy03fODHcNXmg_H-256" value="" style="rounded=0;whiteSpace=wrap;html=1;fillColor=none;strokeColor=#FF3333;" vertex="1" parent="1">
          <mxGeometry x="2620" y="10850" width="440" height="380" as="geometry" />
        </mxCell>
        <mxCell id="wz2QxPy03fODHcNXmg_H-257" value="&lt;div style=&quot;color: #cccccc;background-color: #1f1f1f;font-family: &#39;JetBrains Mono&#39;, &#39;Droid Sans Mono&#39;, &#39;monospace&#39;, monospace;font-weight: normal;font-size: 14px;line-height: 19px;white-space: pre;&quot;&gt;&lt;div&gt;&lt;span style=&quot;color: #569cd6;&quot;&gt;int&lt;/span&gt;&lt;span style=&quot;color: #cccccc;&quot;&gt; &lt;/span&gt;&lt;span style=&quot;color: #9cdcfe;&quot;&gt;cubeInd&lt;/span&gt;&lt;span style=&quot;color: #cccccc;&quot;&gt; &lt;/span&gt;&lt;span style=&quot;color: #d4d4d4;&quot;&gt;=&lt;/span&gt;&lt;span style=&quot;color: #cccccc;&quot;&gt; &lt;/span&gt;&lt;span style=&quot;color: #9cdcfe;&quot;&gt;i&lt;/span&gt;&lt;span style=&quot;color: #cccccc;&quot;&gt; &lt;/span&gt;&lt;span style=&quot;color: #d4d4d4;&quot;&gt;+&lt;/span&gt;&lt;span style=&quot;color: #cccccc;&quot;&gt; &lt;/span&gt;&lt;span style=&quot;color: #9cdcfe;&quot;&gt;laserCloudWidth&lt;/span&gt;&lt;span style=&quot;color: #cccccc;&quot;&gt; &lt;/span&gt;&lt;span style=&quot;color: #d4d4d4;&quot;&gt;*&lt;/span&gt;&lt;span style=&quot;color: #cccccc;&quot;&gt; &lt;/span&gt;&lt;span style=&quot;color: #9cdcfe;&quot;&gt;j&lt;/span&gt;&lt;span style=&quot;color: #cccccc;&quot;&gt; &lt;/span&gt;&lt;span style=&quot;color: #d4d4d4;&quot;&gt;+&lt;/span&gt;&lt;span style=&quot;color: #cccccc;&quot;&gt; &lt;/span&gt;&lt;/div&gt;&lt;div&gt;&lt;span style=&quot;color: #9cdcfe;&quot;&gt;laserCloudWidth&lt;/span&gt;&lt;span style=&quot;color: #cccccc;&quot;&gt; &lt;/span&gt;&lt;span style=&quot;color: #d4d4d4;&quot;&gt;*&lt;/span&gt;&lt;span style=&quot;color: #cccccc;&quot;&gt; &lt;/span&gt;&lt;span style=&quot;color: #9cdcfe;&quot;&gt;laserCloudHeight&lt;/span&gt;&lt;span style=&quot;color: #cccccc;&quot;&gt; &lt;/span&gt;&lt;span style=&quot;color: #d4d4d4;&quot;&gt;*&lt;/span&gt;&lt;span style=&quot;color: #cccccc;&quot;&gt; &lt;/span&gt;&lt;span style=&quot;color: #9cdcfe;&quot;&gt;k&lt;/span&gt;&lt;span style=&quot;color: #cccccc;&quot;&gt;;&lt;/span&gt;&lt;/div&gt;&lt;div&gt;&lt;span style=&quot;color: #cccccc;&quot;&gt;&lt;/span&gt;&lt;/div&gt;&lt;/div&gt;" style="text;whiteSpace=wrap;html=1;" vertex="1" parent="1">
          <mxGeometry x="2792" y="11390" width="355.5" height="40" as="geometry" />
        </mxCell>
        <mxCell id="wz2QxPy03fODHcNXmg_H-258" value="" style="group" connectable="0" vertex="1" parent="1">
          <mxGeometry x="3140" y="9910" width="370" height="230" as="geometry" />
        </mxCell>
        <mxCell id="wz2QxPy03fODHcNXmg_H-259" value="" style="ellipse;whiteSpace=wrap;html=1;" vertex="1" parent="wz2QxPy03fODHcNXmg_H-258">
          <mxGeometry width="370" height="230" as="geometry" />
        </mxCell>
        <mxCell id="wz2QxPy03fODHcNXmg_H-260" value="" style="group" connectable="0" vertex="1" parent="wz2QxPy03fODHcNXmg_H-258">
          <mxGeometry x="74" y="27.6" width="237.47272727272727" height="165.6" as="geometry" />
        </mxCell>
        <mxCell id="wz2QxPy03fODHcNXmg_H-261" value="`p_{center}`" style="text;html=1;align=center;verticalAlign=middle;resizable=0;points=[];autosize=1;strokeColor=none;fillColor=none;" vertex="1" parent="wz2QxPy03fODHcNXmg_H-260">
          <mxGeometry x="73.49769696969702" y="82.8" width="100" height="30" as="geometry" />
        </mxCell>
        <mxCell id="wz2QxPy03fODHcNXmg_H-262" value="" style="rounded=0;whiteSpace=wrap;html=1;strokeColor=#33FF33;fillColor=none;" vertex="1" parent="wz2QxPy03fODHcNXmg_H-260">
          <mxGeometry y="9.2" width="224.24242424242425" height="156.39999999999998" as="geometry" />
        </mxCell>
        <mxCell id="wz2QxPy03fODHcNXmg_H-263" value="&lt;span style=&quot;color: rgb(156, 220, 254); font-family: &amp;quot;JetBrains Mono&amp;quot;, &amp;quot;Droid Sans Mono&amp;quot;, &amp;quot;monospace&amp;quot;, monospace; font-size: 14px; font-style: normal; font-variant-ligatures: normal; font-variant-caps: normal; font-weight: 400; letter-spacing: normal; orphans: 2; text-align: left; text-indent: 0px; text-transform: none; widows: 2; word-spacing: 0px; -webkit-text-stroke-width: 0px; white-space: pre; background-color: rgb(31, 31, 31); text-decoration-thickness: initial; text-decoration-style: initial; text-decoration-color: initial; display: inline !important; float: none;&quot;&gt;cubeInd&lt;/span&gt;" style="text;whiteSpace=wrap;html=1;" vertex="1" parent="wz2QxPy03fODHcNXmg_H-260">
          <mxGeometry x="59.42424242424242" y="46.919999999999995" width="51.127272727272725" height="26.68" as="geometry" />
        </mxCell>
        <mxCell id="wz2QxPy03fODHcNXmg_H-264" value="" style="ellipse;whiteSpace=wrap;html=1;aspect=fixed;" vertex="1" parent="wz2QxPy03fODHcNXmg_H-260">
          <mxGeometry x="103.09769696969703" y="10.12" width="26.90909090909091" height="26.90909090909091" as="geometry" />
        </mxCell>
        <mxCell id="wz2QxPy03fODHcNXmg_H-265" value="" style="ellipse;whiteSpace=wrap;html=1;aspect=fixed;" vertex="1" parent="wz2QxPy03fODHcNXmg_H-260">
          <mxGeometry x="179.90521212121226" y="10.12" width="26.90909090909091" height="26.90909090909091" as="geometry" />
        </mxCell>
        <mxCell id="wz2QxPy03fODHcNXmg_H-266" value="" style="ellipse;whiteSpace=wrap;html=1;aspect=fixed;" vertex="1" parent="wz2QxPy03fODHcNXmg_H-260">
          <mxGeometry x="26.684848484848484" y="128.79999999999998" width="26.90909090909091" height="26.90909090909091" as="geometry" />
        </mxCell>
        <mxCell id="wz2QxPy03fODHcNXmg_H-267" value="" style="ellipse;whiteSpace=wrap;html=1;aspect=fixed;" vertex="1" parent="wz2QxPy03fODHcNXmg_H-260">
          <mxGeometry x="21.473454545454594" y="73.6" width="26.90909090909091" height="26.90909090909091" as="geometry" />
        </mxCell>
        <mxCell id="wz2QxPy03fODHcNXmg_H-268" value="" style="ellipse;whiteSpace=wrap;html=1;aspect=fixed;" vertex="1" parent="wz2QxPy03fODHcNXmg_H-260">
          <mxGeometry x="112.96436363636369" y="128.79999999999998" width="26.90909090909091" height="26.90909090909091" as="geometry" />
        </mxCell>
        <mxCell id="wz2QxPy03fODHcNXmg_H-269" value="" style="ellipse;whiteSpace=wrap;html=1;aspect=fixed;" vertex="1" parent="wz2QxPy03fODHcNXmg_H-260">
          <mxGeometry x="27.45624242424254" y="10.12" width="26.90909090909091" height="26.90909090909091" as="geometry" />
        </mxCell>
        <mxCell id="wz2QxPy03fODHcNXmg_H-270" value="" style="ellipse;whiteSpace=wrap;html=1;aspect=fixed;" vertex="1" parent="wz2QxPy03fODHcNXmg_H-260">
          <mxGeometry x="183.82496969696976" y="128.79999999999998" width="26.90909090909091" height="26.90909090909091" as="geometry" />
        </mxCell>
        <mxCell id="wz2QxPy03fODHcNXmg_H-271" value="" style="ellipse;whiteSpace=wrap;html=1;aspect=fixed;" vertex="1" parent="wz2QxPy03fODHcNXmg_H-260">
          <mxGeometry x="111.44848484848485" y="64.39999999999999" width="26.90909090909091" height="26.90909090909091" as="geometry" />
        </mxCell>
        <mxCell id="wz2QxPy03fODHcNXmg_H-272" value="" style="ellipse;whiteSpace=wrap;html=1;aspect=fixed;" vertex="1" parent="wz2QxPy03fODHcNXmg_H-260">
          <mxGeometry x="179.90521212121226" y="73.6" width="26.90909090909091" height="26.90909090909091" as="geometry" />
        </mxCell>
        <mxCell id="wz2QxPy03fODHcNXmg_H-273" value="" style="shape=flexArrow;endArrow=classic;html=1;rounded=0;" edge="1" parent="1">
          <mxGeometry width="50" height="50" relative="1" as="geometry">
            <mxPoint x="3150" y="10230" as="sourcePoint" />
            <mxPoint x="3230" y="10150" as="targetPoint" />
          </mxGeometry>
        </mxCell>
        <mxCell id="wz2QxPy03fODHcNXmg_H-274" value="sub_surf_map" style="text;html=1;align=center;verticalAlign=middle;resizable=0;points=[];autosize=1;strokeColor=none;fillColor=none;" vertex="1" parent="1">
          <mxGeometry x="3271" y="10158" width="100" height="30" as="geometry" />
        </mxCell>
        <mxCell id="wz2QxPy03fODHcNXmg_H-275" value="&lt;div style=&quot;color: #cccccc;background-color: #1f1f1f;font-family: &#39;JetBrains Mono&#39;, &#39;Droid Sans Mono&#39;, &#39;monospace&#39;, monospace;font-weight: normal;font-size: 14px;line-height: 19px;white-space: pre;&quot;&gt;&lt;div&gt;&lt;span style=&quot;color: #dcdcaa;&quot;&gt;get_5x5_localmap_surf&lt;/span&gt;&lt;/div&gt;&lt;/div&gt;" style="text;whiteSpace=wrap;html=1;" vertex="1" parent="1">
          <mxGeometry x="3245" y="9868" width="210" height="40" as="geometry" />
        </mxCell>
        <mxCell id="wz2QxPy03fODHcNXmg_H-276" value="" style="ellipse;whiteSpace=wrap;html=1;aspect=fixed;fillColor=#FF0000;" vertex="1" parent="1">
          <mxGeometry x="3278" y="10330" width="30" height="30" as="geometry" />
        </mxCell>
        <mxCell id="wz2QxPy03fODHcNXmg_H-277" value="" style="ellipse;whiteSpace=wrap;html=1;aspect=fixed;fillColor=#6666FF;" vertex="1" parent="1">
          <mxGeometry x="3278" y="10280" width="30" height="30" as="geometry" />
        </mxCell>
        <mxCell id="wz2QxPy03fODHcNXmg_H-278" value="surf点" style="text;html=1;align=center;verticalAlign=middle;resizable=0;points=[];autosize=1;strokeColor=none;fillColor=none;" vertex="1" parent="1">
          <mxGeometry x="3321" y="10280" width="60" height="30" as="geometry" />
        </mxCell>
        <mxCell id="wz2QxPy03fODHcNXmg_H-279" value="corner点&lt;span class=&quot;eusoft-eudic-chrome-extension-translate-content&quot;&gt;&lt;/span&gt;" style="text;html=1;align=center;verticalAlign=middle;resizable=0;points=[];autosize=1;strokeColor=none;fillColor=none;" vertex="1" parent="1">
          <mxGeometry x="3311" y="10330" width="70" height="30" as="geometry" />
        </mxCell>
        <mxCell id="wz2QxPy03fODHcNXmg_H-280" value="初始化得到`T_l^w`=(`R_l^w`, `t_l^w`)&lt;span class=&quot;eusoft-eudic-chrome-extension-translate-content&quot;&gt;&lt;/span&gt;&lt;span class=&quot;eusoft-eudic-chrome-extension-translate-content&quot;&gt;&lt;/span&gt;&lt;span class=&quot;eusoft-eudic-chrome-extension-translate-content&quot;&gt;&lt;/span&gt;" style="rounded=1;whiteSpace=wrap;html=1;" vertex="1" parent="1">
          <mxGeometry x="1009.9999999999999" y="10824" width="120" height="60" as="geometry" />
        </mxCell>
        <mxCell id="wz2QxPy03fODHcNXmg_H-281" value="移动localMap到`T_l^w`所在位置" style="rounded=1;whiteSpace=wrap;html=1;" vertex="1" parent="1">
          <mxGeometry x="1009.25" y="11074" width="120" height="47" as="geometry" />
        </mxCell>
        <mxCell id="wz2QxPy03fODHcNXmg_H-282" value="传感器消息输入与同步" style="rounded=1;whiteSpace=wrap;html=1;" vertex="1" parent="1">
          <mxGeometry x="1009.9999999999999" y="10734" width="120" height="60" as="geometry" />
        </mxCell>
        <mxCell id="wz2QxPy03fODHcNXmg_H-283" value="设置`T_l^w`为localMap中心，并将cornerpoints, surfponits转到W系下并加入到localmap中" style="rounded=1;whiteSpace=wrap;html=1;" vertex="1" parent="1">
          <mxGeometry x="1170.38" y="10912" width="145" height="70" as="geometry" />
        </mxCell>
        <mxCell id="wz2QxPy03fODHcNXmg_H-284" value="得到lidar系下corner和surf点集" style="rounded=1;whiteSpace=wrap;html=1;" vertex="1" parent="1">
          <mxGeometry x="1009.25" y="11004" width="120" height="38" as="geometry" />
        </mxCell>
        <mxCell id="wz2QxPy03fODHcNXmg_H-285" value="判断是否初始化" style="rhombus;whiteSpace=wrap;html=1;" vertex="1" parent="1">
          <mxGeometry x="1011.13" y="10912" width="117.5" height="70" as="geometry" />
        </mxCell>
        <mxCell id="wz2QxPy03fODHcNXmg_H-286" value="得到优化后的位姿`T_l^{w**}`&lt;span class=&quot;eusoft-eudic-chrome-extension-translate-content&quot;&gt;&lt;/span&gt;&lt;span class=&quot;eusoft-eudic-chrome-extension-translate-content&quot;&gt;&lt;/span&gt;&lt;span class=&quot;eusoft-eudic-chrome-extension-translate-content&quot;&gt;&lt;/span&gt;" style="rounded=1;whiteSpace=wrap;html=1;" vertex="1" parent="1">
          <mxGeometry x="1010.12" y="11597" width="120" height="60" as="geometry" />
        </mxCell>
        <mxCell id="wz2QxPy03fODHcNXmg_H-287" value="计算ICP匹配误差" style="rounded=1;whiteSpace=wrap;html=1;" vertex="1" parent="1">
          <mxGeometry x="1009.62" y="11687" width="120" height="60" as="geometry" />
        </mxCell>
        <mxCell id="wz2QxPy03fODHcNXmg_H-288" value="计算lidar里程计不确定度" style="rounded=1;whiteSpace=wrap;html=1;" vertex="1" parent="1">
          <mxGeometry x="1009.62" y="11777" width="120" height="60" as="geometry" />
        </mxCell>
        <mxCell id="wz2QxPy03fODHcNXmg_H-289" value="移动locolmap到优化后的位姿&lt;span class=&quot;eusoft-eudic-chrome-extension-translate-content&quot;&gt;&lt;/span&gt;`T_l^{w**}`上，并清除原来的W下的cornerpoints和surfpoints, 并用新的位姿`T_l^{w**}`将原来lidar系的cornerpoints和surfpoints转换到W系下，并加入到localmap中" style="rounded=1;whiteSpace=wrap;html=1;" vertex="1" parent="1">
          <mxGeometry x="982.37" y="11877" width="174" height="130" as="geometry" />
        </mxCell>
        <mxCell id="wz2QxPy03fODHcNXmg_H-290" value="退化检测" style="rounded=1;whiteSpace=wrap;html=1;" vertex="1" parent="1">
          <mxGeometry x="1232.62" y="11597" width="150" height="40" as="geometry" />
        </mxCell>
        <mxCell id="wz2QxPy03fODHcNXmg_H-291" value="计算最大平移误差和方向；计算最大旋转误差和方向" style="rounded=1;whiteSpace=wrap;html=1;" vertex="1" parent="1">
          <mxGeometry x="1232.62" y="11647" width="152.5" height="50" as="geometry" />
        </mxCell>
        <mxCell id="wz2QxPy03fODHcNXmg_H-292" value="计算&lt;b&gt;定位不确定度&lt;/b&gt;（包括xyz,rx,ry,rz方向），x方向uncertanty为x方向的特征值/总特征值&lt;span class=&quot;eusoft-eudic-chrome-extension-translate-content&quot;&gt;&lt;/span&gt;&lt;span class=&quot;eusoft-eudic-chrome-extension-translate-content&quot;&gt;&lt;/span&gt;" style="rounded=1;whiteSpace=wrap;html=1;" vertex="1" parent="1">
          <mxGeometry x="1232.62" y="11702" width="152.5" height="70" as="geometry" />
        </mxCell>
        <mxCell id="wz2QxPy03fODHcNXmg_H-293" value="得到HTH矩阵（协方差矩阵）&lt;span class=&quot;eusoft-eudic-chrome-extension-translate-content&quot;&gt;&lt;/span&gt;&lt;span class=&quot;eusoft-eudic-chrome-extension-translate-content&quot;&gt;&lt;/span&gt;" style="rounded=1;whiteSpace=wrap;html=1;" vertex="1" parent="1">
          <mxGeometry x="1232.62" y="11547" width="150" height="40" as="geometry" />
        </mxCell>
        <mxCell id="wz2QxPy03fODHcNXmg_H-294" value="通过PlaneFeatureHistogramObs计算里程计不确定度，包括x,y,z,rx, ry, rz方向" style="rounded=1;whiteSpace=wrap;html=1;" vertex="1" parent="1">
          <mxGeometry x="1210" y="11797" width="190" height="73" as="geometry" />
        </mxCell>
        <mxCell id="wz2QxPy03fODHcNXmg_H-295" value="&lt;span style=&quot;color: rgb(0, 0, 0); font-family: Helvetica; font-size: 12px; font-style: normal; font-variant-ligatures: normal; font-variant-caps: normal; font-weight: 400; letter-spacing: normal; orphans: 2; text-align: center; text-indent: 0px; text-transform: none; widows: 2; word-spacing: 0px; -webkit-text-stroke-width: 0px; white-space: normal; background-color: rgb(251, 251, 251); text-decoration-thickness: initial; text-decoration-style: initial; text-decoration-color: initial; display: inline !important; float: none;&quot;&gt;PlaneFeatureHistogramObs&lt;/span&gt;" style="text;whiteSpace=wrap;html=1;" vertex="1" parent="1">
          <mxGeometry x="1491.5" y="11081" width="190" height="40" as="geometry" />
        </mxCell>
        <mxCell id="wz2QxPy03fODHcNXmg_H-296" value="" style="group" connectable="0" vertex="1" parent="1">
          <mxGeometry x="1490" y="11131" width="94" height="369" as="geometry" />
        </mxCell>
        <mxCell id="wz2QxPy03fODHcNXmg_H-297" value="rx" style="rounded=1;whiteSpace=wrap;html=1;" vertex="1" parent="wz2QxPy03fODHcNXmg_H-296">
          <mxGeometry width="94" height="41" as="geometry" />
        </mxCell>
        <mxCell id="wz2QxPy03fODHcNXmg_H-298" value="n_rx" style="rounded=1;whiteSpace=wrap;html=1;" vertex="1" parent="wz2QxPy03fODHcNXmg_H-296">
          <mxGeometry y="41" width="94" height="41" as="geometry" />
        </mxCell>
        <mxCell id="wz2QxPy03fODHcNXmg_H-299" value="ry" style="rounded=1;whiteSpace=wrap;html=1;" vertex="1" parent="wz2QxPy03fODHcNXmg_H-296">
          <mxGeometry y="82" width="94" height="41" as="geometry" />
        </mxCell>
        <mxCell id="wz2QxPy03fODHcNXmg_H-300" value="n_ry" style="rounded=1;whiteSpace=wrap;html=1;" vertex="1" parent="wz2QxPy03fODHcNXmg_H-296">
          <mxGeometry y="123" width="94" height="41" as="geometry" />
        </mxCell>
        <mxCell id="wz2QxPy03fODHcNXmg_H-301" value="rz" style="rounded=1;whiteSpace=wrap;html=1;" vertex="1" parent="wz2QxPy03fODHcNXmg_H-296">
          <mxGeometry y="164" width="94" height="41" as="geometry" />
        </mxCell>
        <mxCell id="wz2QxPy03fODHcNXmg_H-302" value="n_rz" style="rounded=1;whiteSpace=wrap;html=1;" vertex="1" parent="wz2QxPy03fODHcNXmg_H-296">
          <mxGeometry y="205" width="94" height="41" as="geometry" />
        </mxCell>
        <mxCell id="wz2QxPy03fODHcNXmg_H-303" value="tx" style="rounded=1;whiteSpace=wrap;html=1;" vertex="1" parent="wz2QxPy03fODHcNXmg_H-296">
          <mxGeometry y="246" width="94" height="41" as="geometry" />
        </mxCell>
        <mxCell id="wz2QxPy03fODHcNXmg_H-304" value="ty" style="rounded=1;whiteSpace=wrap;html=1;" vertex="1" parent="wz2QxPy03fODHcNXmg_H-296">
          <mxGeometry y="287" width="94" height="41" as="geometry" />
        </mxCell>
        <mxCell id="wz2QxPy03fODHcNXmg_H-305" value="tz" style="rounded=1;whiteSpace=wrap;html=1;" vertex="1" parent="wz2QxPy03fODHcNXmg_H-296">
          <mxGeometry y="328" width="94" height="41" as="geometry" />
        </mxCell>
        <mxCell id="wz2QxPy03fODHcNXmg_H-306" value="1" style="group" connectable="0" vertex="1" parent="1">
          <mxGeometry x="1679" y="11130" width="94" height="369" as="geometry" />
        </mxCell>
        <mxCell id="wz2QxPy03fODHcNXmg_H-307" value="2" style="rounded=1;whiteSpace=wrap;html=1;" vertex="1" parent="wz2QxPy03fODHcNXmg_H-306">
          <mxGeometry width="94" height="41" as="geometry" />
        </mxCell>
        <mxCell id="wz2QxPy03fODHcNXmg_H-308" value="0" style="rounded=1;whiteSpace=wrap;html=1;" vertex="1" parent="wz2QxPy03fODHcNXmg_H-306">
          <mxGeometry y="41" width="94" height="41" as="geometry" />
        </mxCell>
        <mxCell id="wz2QxPy03fODHcNXmg_H-309" value="2" style="rounded=1;whiteSpace=wrap;html=1;" vertex="1" parent="wz2QxPy03fODHcNXmg_H-306">
          <mxGeometry y="82" width="94" height="41" as="geometry" />
        </mxCell>
        <mxCell id="wz2QxPy03fODHcNXmg_H-310" value="0" style="rounded=1;whiteSpace=wrap;html=1;" vertex="1" parent="wz2QxPy03fODHcNXmg_H-306">
          <mxGeometry y="123" width="94" height="41" as="geometry" />
        </mxCell>
        <mxCell id="wz2QxPy03fODHcNXmg_H-311" value="0" style="rounded=1;whiteSpace=wrap;html=1;" vertex="1" parent="wz2QxPy03fODHcNXmg_H-306">
          <mxGeometry y="164" width="94" height="41" as="geometry" />
        </mxCell>
        <mxCell id="wz2QxPy03fODHcNXmg_H-312" value="0" style="rounded=1;whiteSpace=wrap;html=1;" vertex="1" parent="wz2QxPy03fODHcNXmg_H-306">
          <mxGeometry y="205" width="94" height="41" as="geometry" />
        </mxCell>
        <mxCell id="wz2QxPy03fODHcNXmg_H-313" value="1" style="rounded=1;whiteSpace=wrap;html=1;" vertex="1" parent="wz2QxPy03fODHcNXmg_H-306">
          <mxGeometry y="246" width="94" height="41" as="geometry" />
        </mxCell>
        <mxCell id="wz2QxPy03fODHcNXmg_H-314" value="1" style="rounded=1;whiteSpace=wrap;html=1;" vertex="1" parent="wz2QxPy03fODHcNXmg_H-306">
          <mxGeometry y="287" width="94" height="41" as="geometry" />
        </mxCell>
        <mxCell id="wz2QxPy03fODHcNXmg_H-315" value="0" style="rounded=1;whiteSpace=wrap;html=1;" vertex="1" parent="wz2QxPy03fODHcNXmg_H-306">
          <mxGeometry y="328" width="94" height="41" as="geometry" />
        </mxCell>
        <mxCell id="wz2QxPy03fODHcNXmg_H-316" value="越大表示在tx,ty, rx, ry方向的可观性较好，否则较差&lt;span class=&quot;eusoft-eudic-chrome-extension-translate-content&quot;&gt;&lt;/span&gt;" style="text;html=1;align=center;verticalAlign=middle;resizable=0;points=[];autosize=1;strokeColor=none;fillColor=none;" vertex="1" parent="1">
          <mxGeometry x="1776.81" y="11140" width="300" height="30" as="geometry" />
        </mxCell>
        <mxCell id="wz2QxPy03fODHcNXmg_H-317" value="`\alpha_x = \frac{tx}{tx+ty+tz}`" style="text;html=1;align=center;verticalAlign=middle;resizable=0;points=[];autosize=1;strokeColor=none;fillColor=none;" vertex="1" parent="1">
          <mxGeometry x="1794" y="11191" width="200" height="30" as="geometry" />
        </mxCell>
        <mxCell id="wz2QxPy03fODHcNXmg_H-318" value="`\beta_x = \frac{rx}{rx+nrx+ry+nry+rz+nrz}`&lt;span class=&quot;eusoft-eudic-chrome-extension-translate-content&quot;&gt;&lt;span class=&quot;eusoft-eudic-chrome-extension-translate-white-space ng-star-inserted&quot;&gt;&amp;nbsp;&lt;/span&gt;&lt;/span&gt;" style="text;html=1;align=center;verticalAlign=middle;resizable=0;points=[];autosize=1;strokeColor=none;fillColor=none;" vertex="1" parent="1">
          <mxGeometry x="1814" y="11250" width="270" height="30" as="geometry" />
        </mxCell>
        <mxCell id="wz2QxPy03fODHcNXmg_H-319" value="代表x, rx方向置信度。越高则表示算法估计的里程计越准" style="text;html=1;align=center;verticalAlign=middle;resizable=0;points=[];autosize=1;strokeColor=none;fillColor=none;" vertex="1" parent="1">
          <mxGeometry x="1799" y="11300.5" width="320" height="30" as="geometry" />
        </mxCell>
        <mxCell id="wz2QxPy03fODHcNXmg_H-320" value="" style="shape=flexArrow;endArrow=classic;html=1;rounded=0;" edge="1" parent="1">
          <mxGeometry width="50" height="50" relative="1" as="geometry">
            <mxPoint x="1599" y="11280" as="sourcePoint" />
            <mxPoint x="1669" y="11280" as="targetPoint" />
          </mxGeometry>
        </mxCell>
        <mxCell id="wz2QxPy03fODHcNXmg_H-321" value="" style="group" connectable="0" vertex="1" parent="1">
          <mxGeometry x="930" y="10544" width="280" height="150" as="geometry" />
        </mxCell>
        <mxCell id="wz2QxPy03fODHcNXmg_H-322" value="" style="rounded=1;whiteSpace=wrap;html=1;" vertex="1" parent="wz2QxPy03fODHcNXmg_H-321">
          <mxGeometry width="280" height="150" as="geometry" />
        </mxCell>
        <mxCell id="wz2QxPy03fODHcNXmg_H-323" value="lidar points" style="rounded=1;whiteSpace=wrap;html=1;" vertex="1" parent="wz2QxPy03fODHcNXmg_H-321">
          <mxGeometry x="15" y="15" width="120" height="60" as="geometry" />
        </mxCell>
        <mxCell id="wz2QxPy03fODHcNXmg_H-324" value="imu&amp;nbsp; odom" style="rounded=1;whiteSpace=wrap;html=1;" vertex="1" parent="wz2QxPy03fODHcNXmg_H-321">
          <mxGeometry x="147" y="15" width="120" height="60" as="geometry" />
        </mxCell>
        <mxCell id="wz2QxPy03fODHcNXmg_H-325" value="cam odom" style="rounded=1;whiteSpace=wrap;html=1;" vertex="1" parent="wz2QxPy03fODHcNXmg_H-321">
          <mxGeometry x="15" y="80" width="120" height="60" as="geometry" />
        </mxCell>
        <mxCell id="wz2QxPy03fODHcNXmg_H-326" value="" style="endArrow=classic;html=1;rounded=0;edgeStyle=orthogonalEdgeStyle;exitX=0.5;exitY=1;exitDx=0;exitDy=0;" edge="1" parent="1" source="wz2QxPy03fODHcNXmg_H-282" target="wz2QxPy03fODHcNXmg_H-280">
          <mxGeometry width="50" height="50" relative="1" as="geometry">
            <mxPoint x="1061.3600000000001" y="10793.48" as="sourcePoint" />
            <mxPoint x="1111.3600000000001" y="10743.48" as="targetPoint" />
          </mxGeometry>
        </mxCell>
        <mxCell id="wz2QxPy03fODHcNXmg_H-327" value="" style="endArrow=classic;html=1;rounded=0;edgeStyle=orthogonalEdgeStyle;exitX=0.5;exitY=1;exitDx=0;exitDy=0;entryX=0.5;entryY=0;entryDx=0;entryDy=0;" edge="1" parent="1" source="wz2QxPy03fODHcNXmg_H-280" target="wz2QxPy03fODHcNXmg_H-285">
          <mxGeometry width="50" height="50" relative="1" as="geometry">
            <mxPoint x="1076.88" y="10804" as="sourcePoint" />
            <mxPoint x="1076.88" y="10834" as="targetPoint" />
          </mxGeometry>
        </mxCell>
        <mxCell id="wz2QxPy03fODHcNXmg_H-328" value="" style="endArrow=classic;html=1;rounded=0;edgeStyle=orthogonalEdgeStyle;entryX=0.5;entryY=0;entryDx=0;entryDy=0;exitX=0.5;exitY=1;exitDx=0;exitDy=0;" edge="1" parent="1" source="wz2QxPy03fODHcNXmg_H-284" target="wz2QxPy03fODHcNXmg_H-281">
          <mxGeometry width="50" height="50" relative="1" as="geometry">
            <mxPoint x="1069.88" y="11040" as="sourcePoint" />
            <mxPoint x="1089.5" y="10881" as="targetPoint" />
          </mxGeometry>
        </mxCell>
        <mxCell id="wz2QxPy03fODHcNXmg_H-329" value="" style="endArrow=classic;html=1;rounded=0;edgeStyle=orthogonalEdgeStyle;exitX=0.5;exitY=1;exitDx=0;exitDy=0;entryX=0.25;entryY=0;entryDx=0;entryDy=0;" edge="1" parent="1" source="wz2QxPy03fODHcNXmg_H-281" target="wz2QxPy03fODHcNXmg_H-351">
          <mxGeometry width="50" height="50" relative="1" as="geometry">
            <mxPoint x="1099.62" y="10777" as="sourcePoint" />
            <mxPoint x="1069.2941176470586" y="11057.036011964106" as="targetPoint" />
          </mxGeometry>
        </mxCell>
        <mxCell id="wz2QxPy03fODHcNXmg_H-330" value="" style="endArrow=classic;html=1;rounded=0;edgeStyle=orthogonalEdgeStyle;exitX=0.5;exitY=1;exitDx=0;exitDy=0;entryX=0.5;entryY=0;entryDx=0;entryDy=0;" edge="1" parent="1" source="wz2QxPy03fODHcNXmg_H-353" target="wz2QxPy03fODHcNXmg_H-332">
          <mxGeometry width="50" height="50" relative="1" as="geometry">
            <mxPoint x="1119.62" y="10797" as="sourcePoint" />
            <mxPoint x="1119.62" y="10827" as="targetPoint" />
          </mxGeometry>
        </mxCell>
        <mxCell id="wz2QxPy03fODHcNXmg_H-331" value="" style="group" connectable="0" vertex="1" parent="1">
          <mxGeometry x="987.62" y="11287" width="165" height="270" as="geometry" />
        </mxCell>
        <mxCell id="wz2QxPy03fODHcNXmg_H-332" value="" style="rounded=1;whiteSpace=wrap;html=1;" vertex="1" parent="wz2QxPy03fODHcNXmg_H-331">
          <mxGeometry width="165" height="270" as="geometry" />
        </mxCell>
        <mxCell id="wz2QxPy03fODHcNXmg_H-333" value="加入点线残差约束" style="rounded=1;whiteSpace=wrap;html=1;" vertex="1" parent="wz2QxPy03fODHcNXmg_H-331">
          <mxGeometry x="20" y="30" width="120" height="60" as="geometry" />
        </mxCell>
        <mxCell id="wz2QxPy03fODHcNXmg_H-334" value="加入点面残差约束" style="rounded=1;whiteSpace=wrap;html=1;" vertex="1" parent="wz2QxPy03fODHcNXmg_H-331">
          <mxGeometry x="20" y="110" width="120" height="60" as="geometry" />
        </mxCell>
        <mxCell id="wz2QxPy03fODHcNXmg_H-335" value="加入绝对位姿约束" style="rounded=1;whiteSpace=wrap;html=1;" vertex="1" parent="wz2QxPy03fODHcNXmg_H-331">
          <mxGeometry x="20" y="190" width="120" height="60" as="geometry" />
        </mxCell>
        <mxCell id="wz2QxPy03fODHcNXmg_H-336" value="&lt;font color=&quot;#ff0000&quot;&gt;在退化情况下&lt;/font&gt;" style="text;html=1;align=center;verticalAlign=middle;resizable=0;points=[];autosize=1;strokeColor=none;fillColor=none;" vertex="1" parent="wz2QxPy03fODHcNXmg_H-331">
          <mxGeometry x="30" y="190" width="100" height="30" as="geometry" />
        </mxCell>
        <mxCell id="wz2QxPy03fODHcNXmg_H-337" value="发布里程计，path, 点云" style="rounded=1;whiteSpace=wrap;html=1;" vertex="1" parent="1">
          <mxGeometry x="1009.62" y="12047" width="120" height="50" as="geometry" />
        </mxCell>
        <mxCell id="wz2QxPy03fODHcNXmg_H-338" value="" style="endArrow=classic;html=1;rounded=0;edgeStyle=orthogonalEdgeStyle;exitX=0.5;exitY=1;exitDx=0;exitDy=0;" edge="1" parent="1" source="wz2QxPy03fODHcNXmg_H-332" target="wz2QxPy03fODHcNXmg_H-286">
          <mxGeometry width="50" height="50" relative="1" as="geometry">
            <mxPoint x="992.62" y="11577" as="sourcePoint" />
            <mxPoint x="1070.62" y="11577" as="targetPoint" />
            <Array as="points" />
          </mxGeometry>
        </mxCell>
        <mxCell id="wz2QxPy03fODHcNXmg_H-339" value="" style="endArrow=classic;html=1;rounded=0;edgeStyle=orthogonalEdgeStyle;exitX=0.5;exitY=1;exitDx=0;exitDy=0;" edge="1" parent="1" source="wz2QxPy03fODHcNXmg_H-286" target="wz2QxPy03fODHcNXmg_H-287">
          <mxGeometry width="50" height="50" relative="1" as="geometry">
            <mxPoint x="1080.62" y="11567" as="sourcePoint" />
            <mxPoint x="1080.62" y="11607" as="targetPoint" />
            <Array as="points" />
          </mxGeometry>
        </mxCell>
        <mxCell id="wz2QxPy03fODHcNXmg_H-340" value="" style="endArrow=classic;html=1;rounded=0;edgeStyle=orthogonalEdgeStyle;exitX=0.5;exitY=1;exitDx=0;exitDy=0;" edge="1" parent="1" source="wz2QxPy03fODHcNXmg_H-287" target="wz2QxPy03fODHcNXmg_H-288">
          <mxGeometry width="50" height="50" relative="1" as="geometry">
            <mxPoint x="1090.62" y="11577" as="sourcePoint" />
            <mxPoint x="1090.62" y="11617" as="targetPoint" />
            <Array as="points" />
          </mxGeometry>
        </mxCell>
        <mxCell id="wz2QxPy03fODHcNXmg_H-341" value="" style="endArrow=classic;html=1;rounded=0;edgeStyle=orthogonalEdgeStyle;exitX=0.5;exitY=1;exitDx=0;exitDy=0;" edge="1" parent="1" source="wz2QxPy03fODHcNXmg_H-288" target="wz2QxPy03fODHcNXmg_H-289">
          <mxGeometry width="50" height="50" relative="1" as="geometry">
            <mxPoint x="1042.62" y="11857" as="sourcePoint" />
            <mxPoint x="1079.62" y="11787" as="targetPoint" />
            <Array as="points" />
          </mxGeometry>
        </mxCell>
        <mxCell id="wz2QxPy03fODHcNXmg_H-342" value="" style="endArrow=classic;html=1;rounded=0;entryX=0;entryY=0.5;entryDx=0;entryDy=0;edgeStyle=elbowEdgeStyle;exitX=1;exitY=0.5;exitDx=0;exitDy=0;" edge="1" parent="1" source="wz2QxPy03fODHcNXmg_H-287" target="wz2QxPy03fODHcNXmg_H-1">
          <mxGeometry width="50" height="50" relative="1" as="geometry">
            <mxPoint x="1132.62" y="11717" as="sourcePoint" />
            <mxPoint x="1182.62" y="11677" as="targetPoint" />
          </mxGeometry>
        </mxCell>
        <mxCell id="wz2QxPy03fODHcNXmg_H-343" value="" style="endArrow=classic;html=1;rounded=0;entryX=0;entryY=0.5;entryDx=0;entryDy=0;edgeStyle=elbowEdgeStyle;exitX=1;exitY=0.5;exitDx=0;exitDy=0;" edge="1" parent="1" source="wz2QxPy03fODHcNXmg_H-288" target="wz2QxPy03fODHcNXmg_H-294">
          <mxGeometry width="50" height="50" relative="1" as="geometry">
            <mxPoint x="1139.62" y="11727" as="sourcePoint" />
            <mxPoint x="1222.62" y="11672" as="targetPoint" />
          </mxGeometry>
        </mxCell>
        <mxCell id="wz2QxPy03fODHcNXmg_H-344" value="" style="endArrow=classic;html=1;rounded=0;edgeStyle=orthogonalEdgeStyle;exitX=0.5;exitY=1;exitDx=0;exitDy=0;" edge="1" parent="1" source="wz2QxPy03fODHcNXmg_H-289" target="wz2QxPy03fODHcNXmg_H-337">
          <mxGeometry width="50" height="50" relative="1" as="geometry">
            <mxPoint x="1079.62" y="11847" as="sourcePoint" />
            <mxPoint x="1079.62" y="11887" as="targetPoint" />
            <Array as="points" />
          </mxGeometry>
        </mxCell>
        <mxCell id="wz2QxPy03fODHcNXmg_H-345" value="否" style="text;html=1;align=center;verticalAlign=middle;resizable=0;points=[];autosize=1;strokeColor=none;fillColor=none;" vertex="1" parent="1">
          <mxGeometry x="1114.88" y="10912" width="40" height="30" as="geometry" />
        </mxCell>
        <mxCell id="wz2QxPy03fODHcNXmg_H-346" value="" style="endArrow=classic;html=1;rounded=0;edgeStyle=orthogonalEdgeStyle;exitX=1;exitY=0.5;exitDx=0;exitDy=0;entryX=0;entryY=0.5;entryDx=0;entryDy=0;" edge="1" parent="1" source="wz2QxPy03fODHcNXmg_H-285" target="wz2QxPy03fODHcNXmg_H-283">
          <mxGeometry width="50" height="50" relative="1" as="geometry">
            <mxPoint x="1076.88" y="10894" as="sourcePoint" />
            <mxPoint x="1076.88" y="10922" as="targetPoint" />
          </mxGeometry>
        </mxCell>
        <mxCell id="wz2QxPy03fODHcNXmg_H-347" value="是" style="text;html=1;align=center;verticalAlign=middle;resizable=0;points=[];autosize=1;strokeColor=none;fillColor=none;" vertex="1" parent="1">
          <mxGeometry x="1019.8799999999998" y="10974" width="40" height="30" as="geometry" />
        </mxCell>
        <mxCell id="wz2QxPy03fODHcNXmg_H-348" value="" style="endArrow=classic;html=1;rounded=0;edgeStyle=orthogonalEdgeStyle;entryX=0.5;entryY=0;entryDx=0;entryDy=0;exitX=0.5;exitY=1;exitDx=0;exitDy=0;" edge="1" parent="1" source="wz2QxPy03fODHcNXmg_H-285" target="wz2QxPy03fODHcNXmg_H-284">
          <mxGeometry width="50" height="50" relative="1" as="geometry">
            <mxPoint x="1078.88" y="11052" as="sourcePoint" />
            <mxPoint x="1078.88" y="11084" as="targetPoint" />
          </mxGeometry>
        </mxCell>
        <mxCell id="wz2QxPy03fODHcNXmg_H-349" value="" style="endArrow=classic;html=1;rounded=0;edgeStyle=orthogonalEdgeStyle;exitX=0.5;exitY=1;exitDx=0;exitDy=0;entryX=0.5;entryY=0;entryDx=0;entryDy=0;" edge="1" parent="1" source="wz2QxPy03fODHcNXmg_H-322" target="wz2QxPy03fODHcNXmg_H-282">
          <mxGeometry width="50" height="50" relative="1" as="geometry">
            <mxPoint x="1079.88" y="10804" as="sourcePoint" />
            <mxPoint x="1079.88" y="10834" as="targetPoint" />
          </mxGeometry>
        </mxCell>
        <mxCell id="wz2QxPy03fODHcNXmg_H-350" value="" style="group" connectable="0" vertex="1" parent="1">
          <mxGeometry x="975" y="11141" width="375" height="129" as="geometry" />
        </mxCell>
        <mxCell id="wz2QxPy03fODHcNXmg_H-351" value="" style="rounded=1;whiteSpace=wrap;html=1;" vertex="1" parent="wz2QxPy03fODHcNXmg_H-350">
          <mxGeometry width="375" height="129" as="geometry" />
        </mxCell>
        <mxCell id="wz2QxPy03fODHcNXmg_H-352" value="&lt;span style=&quot;color: rgb(0, 0, 0); font-family: Helvetica; font-size: 12px; font-style: normal; font-variant-ligatures: normal; font-variant-caps: normal; font-weight: 400; letter-spacing: normal; orphans: 2; text-align: center; text-indent: 0px; text-transform: none; widows: 2; word-spacing: 0px; -webkit-text-stroke-width: 0px; white-space: normal; background-color: rgb(251, 251, 251); text-decoration-thickness: initial; text-decoration-style: initial; text-decoration-color: initial; display: inline !important; float: none;&quot;&gt;遍历cornerpoints中的每个cornerpoint, 寻找拟合直线，点线残差，方向向量&lt;/span&gt;" style="rounded=1;whiteSpace=wrap;html=1;" vertex="1" parent="wz2QxPy03fODHcNXmg_H-350">
          <mxGeometry x="205.1199999999999" y="17.5" width="160" height="100.5" as="geometry" />
        </mxCell>
        <mxCell id="wz2QxPy03fODHcNXmg_H-353" value="遍历surfpoints中的每个surfpoint, 寻找拟合平面，点面残差，法向量，rx,n_rx, ry, n_ry, rz, n_rz, tx, ty, tz的值, PlaneFeatureHistogramObs的值&lt;span class=&quot;eusoft-eudic-chrome-extension-translate-content&quot;&gt;&lt;/span&gt;" style="rounded=1;whiteSpace=wrap;html=1;" vertex="1" parent="wz2QxPy03fODHcNXmg_H-350">
          <mxGeometry x="14.620000000000005" y="17.5" width="160" height="100" as="geometry" />
        </mxCell>
        <mxCell id="wz2QxPy03fODHcNXmg_H-359" value="W" style="text;html=1;align=center;verticalAlign=middle;resizable=0;points=[];autosize=1;strokeColor=none;fillColor=none;" vertex="1" parent="1">
          <mxGeometry x="2160" y="12017" width="30" height="30" as="geometry" />
        </mxCell>
        <mxCell id="wz2QxPy03fODHcNXmg_H-360" value="" style="group" connectable="0" vertex="1" parent="1">
          <mxGeometry x="2190" y="11990" width="40" height="40" as="geometry" />
        </mxCell>
        <mxCell id="wz2QxPy03fODHcNXmg_H-361" value="" style="endArrow=classic;html=1;rounded=0;" edge="1" parent="wz2QxPy03fODHcNXmg_H-360">
          <mxGeometry width="50" height="50" relative="1" as="geometry">
            <mxPoint y="40" as="sourcePoint" />
            <mxPoint as="targetPoint" />
          </mxGeometry>
        </mxCell>
        <mxCell id="wz2QxPy03fODHcNXmg_H-362" value="" style="endArrow=classic;html=1;rounded=0;" edge="1" parent="wz2QxPy03fODHcNXmg_H-360">
          <mxGeometry width="50" height="50" relative="1" as="geometry">
            <mxPoint y="40" as="sourcePoint" />
            <mxPoint x="40" y="40" as="targetPoint" />
          </mxGeometry>
        </mxCell>
        <mxCell id="wz2QxPy03fODHcNXmg_H-363" value="" style="endArrow=classic;html=1;rounded=0;" edge="1" parent="wz2QxPy03fODHcNXmg_H-360">
          <mxGeometry width="50" height="50" relative="1" as="geometry">
            <mxPoint y="40" as="sourcePoint" />
            <mxPoint x="30" y="10" as="targetPoint" />
          </mxGeometry>
        </mxCell>
        <mxCell id="wz2QxPy03fODHcNXmg_H-407" value="" style="group" vertex="1" connectable="0" parent="1">
          <mxGeometry x="2420" y="11780" width="76" height="91" as="geometry" />
        </mxCell>
        <mxCell id="wz2QxPy03fODHcNXmg_H-354" value="L&lt;span class=&quot;eusoft-eudic-chrome-extension-translate-content&quot;&gt;&lt;/span&gt;" style="text;html=1;align=center;verticalAlign=middle;resizable=0;points=[];autosize=1;strokeColor=none;fillColor=none;" vertex="1" parent="wz2QxPy03fODHcNXmg_H-407">
          <mxGeometry y="60" width="30" height="30" as="geometry" />
        </mxCell>
        <mxCell id="wz2QxPy03fODHcNXmg_H-355" value="" style="group" connectable="0" vertex="1" parent="wz2QxPy03fODHcNXmg_H-407">
          <mxGeometry x="20" y="30" width="40" height="40" as="geometry" />
        </mxCell>
        <mxCell id="wz2QxPy03fODHcNXmg_H-356" value="" style="endArrow=classic;html=1;rounded=0;" edge="1" parent="wz2QxPy03fODHcNXmg_H-355">
          <mxGeometry width="50" height="50" relative="1" as="geometry">
            <mxPoint y="40" as="sourcePoint" />
            <mxPoint as="targetPoint" />
          </mxGeometry>
        </mxCell>
        <mxCell id="wz2QxPy03fODHcNXmg_H-357" value="" style="endArrow=classic;html=1;rounded=0;" edge="1" parent="wz2QxPy03fODHcNXmg_H-355">
          <mxGeometry width="50" height="50" relative="1" as="geometry">
            <mxPoint y="40" as="sourcePoint" />
            <mxPoint x="40" y="40" as="targetPoint" />
          </mxGeometry>
        </mxCell>
        <mxCell id="wz2QxPy03fODHcNXmg_H-358" value="" style="endArrow=classic;html=1;rounded=0;" edge="1" parent="wz2QxPy03fODHcNXmg_H-355">
          <mxGeometry width="50" height="50" relative="1" as="geometry">
            <mxPoint y="40" as="sourcePoint" />
            <mxPoint x="30" y="10" as="targetPoint" />
          </mxGeometry>
        </mxCell>
        <mxCell id="wz2QxPy03fODHcNXmg_H-364" value="X" style="text;html=1;align=center;verticalAlign=middle;resizable=0;points=[];autosize=1;strokeColor=none;fillColor=none;" vertex="1" parent="wz2QxPy03fODHcNXmg_H-407">
          <mxGeometry x="46" y="61" width="30" height="30" as="geometry" />
        </mxCell>
        <mxCell id="wz2QxPy03fODHcNXmg_H-365" value="Y&lt;span class=&quot;eusoft-eudic-chrome-extension-translate-content&quot;&gt;&lt;/span&gt;" style="text;html=1;align=center;verticalAlign=middle;resizable=0;points=[];autosize=1;strokeColor=none;fillColor=none;" vertex="1" parent="wz2QxPy03fODHcNXmg_H-407">
          <mxGeometry x="46" y="11" width="30" height="30" as="geometry" />
        </mxCell>
        <mxCell id="wz2QxPy03fODHcNXmg_H-366" value="Z" style="text;html=1;align=center;verticalAlign=middle;resizable=0;points=[];autosize=1;strokeColor=none;fillColor=none;" vertex="1" parent="wz2QxPy03fODHcNXmg_H-407">
          <mxGeometry width="30" height="30" as="geometry" />
        </mxCell>
        <mxCell id="wz2QxPy03fODHcNXmg_H-408" value="" style="group" vertex="1" connectable="0" parent="1">
          <mxGeometry x="2230" y="11797" width="76" height="91" as="geometry" />
        </mxCell>
        <mxCell id="wz2QxPy03fODHcNXmg_H-409" value="`L_{i-1}`&lt;span class=&quot;eusoft-eudic-chrome-extension-translate-content&quot;&gt;&lt;span class=&quot;eusoft-eudic-chrome-extension-translate-white-space ng-star-inserted&quot;&gt;&amp;nbsp;&lt;/span&gt;&lt;/span&gt;" style="text;html=1;align=center;verticalAlign=middle;resizable=0;points=[];autosize=1;strokeColor=none;fillColor=none;" vertex="1" parent="wz2QxPy03fODHcNXmg_H-408">
          <mxGeometry x="-25" y="60" width="80" height="30" as="geometry" />
        </mxCell>
        <mxCell id="wz2QxPy03fODHcNXmg_H-410" value="" style="group" connectable="0" vertex="1" parent="wz2QxPy03fODHcNXmg_H-408">
          <mxGeometry x="20" y="30" width="40" height="40" as="geometry" />
        </mxCell>
        <mxCell id="wz2QxPy03fODHcNXmg_H-411" value="" style="endArrow=classic;html=1;rounded=0;" edge="1" parent="wz2QxPy03fODHcNXmg_H-410">
          <mxGeometry width="50" height="50" relative="1" as="geometry">
            <mxPoint y="40" as="sourcePoint" />
            <mxPoint as="targetPoint" />
          </mxGeometry>
        </mxCell>
        <mxCell id="wz2QxPy03fODHcNXmg_H-412" value="" style="endArrow=classic;html=1;rounded=0;" edge="1" parent="wz2QxPy03fODHcNXmg_H-410">
          <mxGeometry width="50" height="50" relative="1" as="geometry">
            <mxPoint y="40" as="sourcePoint" />
            <mxPoint x="40" y="40" as="targetPoint" />
          </mxGeometry>
        </mxCell>
        <mxCell id="wz2QxPy03fODHcNXmg_H-413" value="" style="endArrow=classic;html=1;rounded=0;" edge="1" parent="wz2QxPy03fODHcNXmg_H-410">
          <mxGeometry width="50" height="50" relative="1" as="geometry">
            <mxPoint y="40" as="sourcePoint" />
            <mxPoint x="30" y="10" as="targetPoint" />
          </mxGeometry>
        </mxCell>
        <mxCell id="wz2QxPy03fODHcNXmg_H-414" value="X" style="text;html=1;align=center;verticalAlign=middle;resizable=0;points=[];autosize=1;strokeColor=none;fillColor=none;" vertex="1" parent="wz2QxPy03fODHcNXmg_H-408">
          <mxGeometry x="46" y="61" width="30" height="30" as="geometry" />
        </mxCell>
        <mxCell id="wz2QxPy03fODHcNXmg_H-415" value="Y&lt;span class=&quot;eusoft-eudic-chrome-extension-translate-content&quot;&gt;&lt;/span&gt;" style="text;html=1;align=center;verticalAlign=middle;resizable=0;points=[];autosize=1;strokeColor=none;fillColor=none;" vertex="1" parent="wz2QxPy03fODHcNXmg_H-408">
          <mxGeometry x="46" y="11" width="30" height="30" as="geometry" />
        </mxCell>
        <mxCell id="wz2QxPy03fODHcNXmg_H-416" value="Z" style="text;html=1;align=center;verticalAlign=middle;resizable=0;points=[];autosize=1;strokeColor=none;fillColor=none;" vertex="1" parent="wz2QxPy03fODHcNXmg_H-408">
          <mxGeometry width="30" height="30" as="geometry" />
        </mxCell>
        <mxCell id="wz2QxPy03fODHcNXmg_H-435" value="" style="group" vertex="1" connectable="0" parent="1">
          <mxGeometry x="2580" y="11780" width="76" height="91" as="geometry" />
        </mxCell>
        <mxCell id="wz2QxPy03fODHcNXmg_H-436" value="L&lt;span class=&quot;eusoft-eudic-chrome-extension-translate-content&quot;&gt;&lt;/span&gt;" style="text;html=1;align=center;verticalAlign=middle;resizable=0;points=[];autosize=1;strokeColor=none;fillColor=none;" vertex="1" parent="wz2QxPy03fODHcNXmg_H-435">
          <mxGeometry y="60" width="30" height="30" as="geometry" />
        </mxCell>
        <mxCell id="wz2QxPy03fODHcNXmg_H-437" value="" style="group" connectable="0" vertex="1" parent="wz2QxPy03fODHcNXmg_H-435">
          <mxGeometry x="20" y="30" width="40" height="40" as="geometry" />
        </mxCell>
        <mxCell id="wz2QxPy03fODHcNXmg_H-438" value="" style="endArrow=classic;html=1;rounded=0;" edge="1" parent="wz2QxPy03fODHcNXmg_H-437">
          <mxGeometry width="50" height="50" relative="1" as="geometry">
            <mxPoint y="40" as="sourcePoint" />
            <mxPoint as="targetPoint" />
          </mxGeometry>
        </mxCell>
        <mxCell id="wz2QxPy03fODHcNXmg_H-439" value="" style="endArrow=classic;html=1;rounded=0;" edge="1" parent="wz2QxPy03fODHcNXmg_H-437">
          <mxGeometry width="50" height="50" relative="1" as="geometry">
            <mxPoint y="40" as="sourcePoint" />
            <mxPoint x="40" y="40" as="targetPoint" />
          </mxGeometry>
        </mxCell>
        <mxCell id="wz2QxPy03fODHcNXmg_H-440" value="" style="endArrow=classic;html=1;rounded=0;" edge="1" parent="wz2QxPy03fODHcNXmg_H-437">
          <mxGeometry width="50" height="50" relative="1" as="geometry">
            <mxPoint y="40" as="sourcePoint" />
            <mxPoint x="30" y="10" as="targetPoint" />
          </mxGeometry>
        </mxCell>
        <mxCell id="wz2QxPy03fODHcNXmg_H-441" value="X" style="text;html=1;align=center;verticalAlign=middle;resizable=0;points=[];autosize=1;strokeColor=none;fillColor=none;" vertex="1" parent="wz2QxPy03fODHcNXmg_H-435">
          <mxGeometry x="46" y="61" width="30" height="30" as="geometry" />
        </mxCell>
        <mxCell id="wz2QxPy03fODHcNXmg_H-442" value="Y&lt;span class=&quot;eusoft-eudic-chrome-extension-translate-content&quot;&gt;&lt;/span&gt;" style="text;html=1;align=center;verticalAlign=middle;resizable=0;points=[];autosize=1;strokeColor=none;fillColor=none;" vertex="1" parent="wz2QxPy03fODHcNXmg_H-435">
          <mxGeometry x="46" y="11" width="30" height="30" as="geometry" />
        </mxCell>
        <mxCell id="wz2QxPy03fODHcNXmg_H-443" value="Z" style="text;html=1;align=center;verticalAlign=middle;resizable=0;points=[];autosize=1;strokeColor=none;fillColor=none;" vertex="1" parent="wz2QxPy03fODHcNXmg_H-435">
          <mxGeometry width="30" height="30" as="geometry" />
        </mxCell>
        <mxCell id="wz2QxPy03fODHcNXmg_H-444" value="`T_{i-1}^W`" style="text;html=1;align=center;verticalAlign=middle;resizable=0;points=[];autosize=1;strokeColor=none;fillColor=none;" vertex="1" parent="1">
          <mxGeometry x="2230" y="11881" width="90" height="30" as="geometry" />
        </mxCell>
        <mxCell id="wz2QxPy03fODHcNXmg_H-445" value="`T_{i}^W`" style="text;html=1;align=center;verticalAlign=middle;resizable=0;points=[];autosize=1;strokeColor=none;fillColor=none;" vertex="1" parent="1">
          <mxGeometry x="2418" y="11880" width="80" height="30" as="geometry" />
        </mxCell>
        <mxCell id="wz2QxPy03fODHcNXmg_H-446" value="`T_{i+1}^W`&lt;span class=&quot;eusoft-eudic-chrome-extension-translate-content&quot;&gt;&lt;span class=&quot;eusoft-eudic-chrome-extension-translate-white-space ng-star-inserted&quot;&gt;&amp;nbsp;&lt;/span&gt;&lt;/span&gt;" style="text;html=1;align=center;verticalAlign=middle;resizable=0;points=[];autosize=1;strokeColor=none;fillColor=none;" vertex="1" parent="1">
          <mxGeometry x="2568" y="11881" width="100" height="30" as="geometry" />
        </mxCell>
        <mxCell id="wz2QxPy03fODHcNXmg_H-447" value="" style="curved=1;endArrow=classic;html=1;rounded=0;strokeColor=#FF0000;" edge="1" parent="1">
          <mxGeometry width="50" height="50" relative="1" as="geometry">
            <mxPoint x="2190" y="12030" as="sourcePoint" />
            <mxPoint x="2930" y="11860" as="targetPoint" />
            <Array as="points">
              <mxPoint x="2210" y="11980" />
              <mxPoint x="2190" y="11980" />
              <mxPoint x="2220" y="11876" />
              <mxPoint x="2320" y="11840" />
            </Array>
          </mxGeometry>
        </mxCell>
        <mxCell id="wz2QxPy03fODHcNXmg_H-451" value="&lt;span style=&quot;color: rgb(0, 0, 0); font-family: Helvetica; font-size: 12px; font-style: normal; font-variant-ligatures: normal; font-variant-caps: normal; font-weight: 400; letter-spacing: normal; orphans: 2; text-align: center; text-indent: 0px; text-transform: none; widows: 2; word-spacing: 0px; -webkit-text-stroke-width: 0px; white-space: nowrap; background-color: rgb(251, 251, 251); text-decoration-thickness: initial; text-decoration-style: initial; text-decoration-color: initial; display: inline !important; float: none;&quot;&gt;`L_{i}`&lt;/span&gt;" style="text;whiteSpace=wrap;html=1;" vertex="1" parent="1">
          <mxGeometry x="2420" y="11860" width="30" height="20" as="geometry" />
        </mxCell>
        <mxCell id="wz2QxPy03fODHcNXmg_H-452" value="&lt;span style=&quot;color: rgb(0, 0, 0); font-family: Helvetica; font-size: 12px; font-style: normal; font-variant-ligatures: normal; font-variant-caps: normal; font-weight: 400; letter-spacing: normal; orphans: 2; text-align: center; text-indent: 0px; text-transform: none; widows: 2; word-spacing: 0px; -webkit-text-stroke-width: 0px; white-space: nowrap; background-color: rgb(251, 251, 251); text-decoration-thickness: initial; text-decoration-style: initial; text-decoration-color: initial; display: inline !important; float: none;&quot;&gt;`L_{i+1}`&lt;/span&gt;&lt;span class=&quot;eusoft-eudic-chrome-extension-translate-content&quot;&gt;&lt;/span&gt;" style="text;whiteSpace=wrap;html=1;" vertex="1" parent="1">
          <mxGeometry x="2573" y="11860" width="37" height="30" as="geometry" />
        </mxCell>
        <mxCell id="wz2QxPy03fODHcNXmg_H-453" value="" style="ellipse;whiteSpace=wrap;html=1;" vertex="1" parent="1">
          <mxGeometry x="2190" y="11720" width="120" height="80" as="geometry" />
        </mxCell>
        <mxCell id="wz2QxPy03fODHcNXmg_H-456" value="`M_{i-1}`" style="text;html=1;align=center;verticalAlign=middle;resizable=0;points=[];autosize=1;strokeColor=none;fillColor=none;" vertex="1" parent="1">
          <mxGeometry x="2210" y="11690" width="80" height="30" as="geometry" />
        </mxCell>
        <mxCell id="wz2QxPy03fODHcNXmg_H-457" value="&lt;span style=&quot;color: rgb(0, 0, 0); font-family: Helvetica; font-size: 12px; font-style: normal; font-variant-ligatures: normal; font-variant-caps: normal; font-weight: 400; letter-spacing: normal; orphans: 2; text-align: center; text-indent: 0px; text-transform: none; widows: 2; word-spacing: 0px; -webkit-text-stroke-width: 0px; white-space: nowrap; background-color: rgb(251, 251, 251); text-decoration-thickness: initial; text-decoration-style: initial; text-decoration-color: initial; display: inline !important; float: none;&quot;&gt;`M_{i}`&lt;/span&gt;" style="text;whiteSpace=wrap;html=1;" vertex="1" parent="1">
          <mxGeometry x="2440.5" y="11680" width="35" height="27" as="geometry" />
        </mxCell>
        <mxCell id="wz2QxPy03fODHcNXmg_H-458" value="&lt;span style=&quot;color: rgb(0, 0, 0); font-family: Helvetica; font-size: 12px; font-style: normal; font-variant-ligatures: normal; font-variant-caps: normal; font-weight: 400; letter-spacing: normal; orphans: 2; text-align: center; text-indent: 0px; text-transform: none; widows: 2; word-spacing: 0px; -webkit-text-stroke-width: 0px; white-space: nowrap; background-color: rgb(251, 251, 251); text-decoration-thickness: initial; text-decoration-style: initial; text-decoration-color: initial; display: inline !important; float: none;&quot;&gt;`M_{i+1}`&lt;/span&gt;" style="text;whiteSpace=wrap;html=1;" vertex="1" parent="1">
          <mxGeometry x="2612" y="11674" width="41" height="23" as="geometry" />
        </mxCell>
        <mxCell id="wz2QxPy03fODHcNXmg_H-459" value="&lt;b&gt;localmap&lt;/b&gt;" style="text;html=1;align=center;verticalAlign=middle;resizable=0;points=[];autosize=1;strokeColor=none;fillColor=none;" vertex="1" parent="1">
          <mxGeometry x="2100.81" y="11707" width="80" height="30" as="geometry" />
        </mxCell>
        <mxCell id="wz2QxPy03fODHcNXmg_H-460" value="localmap的点在world系下&lt;span class=&quot;eusoft-eudic-chrome-extension-translate-content&quot;&gt;&lt;/span&gt;" style="text;html=1;align=center;verticalAlign=middle;resizable=0;points=[];autosize=1;strokeColor=none;fillColor=none;" vertex="1" parent="1">
          <mxGeometry x="1950" y="11737" width="170" height="30" as="geometry" />
        </mxCell>
        <mxCell id="wz2QxPy03fODHcNXmg_H-461" value="" style="ellipse;whiteSpace=wrap;html=1;aspect=fixed;gradientColor=none;fillColor=#FF3333;" vertex="1" parent="1">
          <mxGeometry x="2275" y="11739.5" width="15" height="15" as="geometry" />
        </mxCell>
        <mxCell id="wz2QxPy03fODHcNXmg_H-463" value="" style="ellipse;whiteSpace=wrap;html=1;aspect=fixed;gradientColor=none;fillColor=#FF3333;" vertex="1" parent="1">
          <mxGeometry x="2242.5" y="11737" width="15" height="15" as="geometry" />
        </mxCell>
        <mxCell id="wz2QxPy03fODHcNXmg_H-464" value="" style="ellipse;whiteSpace=wrap;html=1;aspect=fixed;gradientColor=none;fillColor=#FF3333;" vertex="1" parent="1">
          <mxGeometry x="2210" y="11765" width="15" height="15" as="geometry" />
        </mxCell>
        <mxCell id="wz2QxPy03fODHcNXmg_H-465" value="" style="ellipse;whiteSpace=wrap;html=1;aspect=fixed;gradientColor=none;fillColor=#FF3333;" vertex="1" parent="1">
          <mxGeometry x="2210" y="11737" width="15" height="15" as="geometry" />
        </mxCell>
        <mxCell id="wz2QxPy03fODHcNXmg_H-466" value="" style="ellipse;whiteSpace=wrap;html=1;aspect=fixed;gradientColor=none;fillColor=#FF3333;" vertex="1" parent="1">
          <mxGeometry x="2242.5" y="11765" width="15" height="15" as="geometry" />
        </mxCell>
        <mxCell id="wz2QxPy03fODHcNXmg_H-469" value="" style="ellipse;whiteSpace=wrap;html=1;aspect=fixed;gradientColor=none;fillColor=#FF3333;" vertex="1" parent="1">
          <mxGeometry x="2275" y="11765" width="15" height="15" as="geometry" />
        </mxCell>
        <mxCell id="wz2QxPy03fODHcNXmg_H-484" value="" style="group" vertex="1" connectable="0" parent="1">
          <mxGeometry x="2572.5" y="11702" width="120" height="80" as="geometry" />
        </mxCell>
        <mxCell id="wz2QxPy03fODHcNXmg_H-477" value="" style="ellipse;whiteSpace=wrap;html=1;" vertex="1" parent="wz2QxPy03fODHcNXmg_H-484">
          <mxGeometry width="120" height="80" as="geometry" />
        </mxCell>
        <mxCell id="wz2QxPy03fODHcNXmg_H-478" value="" style="ellipse;whiteSpace=wrap;html=1;aspect=fixed;gradientColor=none;fillColor=#FF3333;" vertex="1" parent="wz2QxPy03fODHcNXmg_H-484">
          <mxGeometry x="85" y="19.5" width="15" height="15" as="geometry" />
        </mxCell>
        <mxCell id="wz2QxPy03fODHcNXmg_H-479" value="" style="ellipse;whiteSpace=wrap;html=1;aspect=fixed;gradientColor=none;fillColor=#FF3333;" vertex="1" parent="wz2QxPy03fODHcNXmg_H-484">
          <mxGeometry x="52.5" y="17" width="15" height="15" as="geometry" />
        </mxCell>
        <mxCell id="wz2QxPy03fODHcNXmg_H-480" value="" style="ellipse;whiteSpace=wrap;html=1;aspect=fixed;gradientColor=none;fillColor=#FF3333;" vertex="1" parent="wz2QxPy03fODHcNXmg_H-484">
          <mxGeometry x="20" y="45" width="15" height="15" as="geometry" />
        </mxCell>
        <mxCell id="wz2QxPy03fODHcNXmg_H-481" value="" style="ellipse;whiteSpace=wrap;html=1;aspect=fixed;gradientColor=none;fillColor=#FF3333;" vertex="1" parent="wz2QxPy03fODHcNXmg_H-484">
          <mxGeometry x="20" y="17" width="15" height="15" as="geometry" />
        </mxCell>
        <mxCell id="wz2QxPy03fODHcNXmg_H-482" value="" style="ellipse;whiteSpace=wrap;html=1;aspect=fixed;gradientColor=none;fillColor=#FF3333;" vertex="1" parent="wz2QxPy03fODHcNXmg_H-484">
          <mxGeometry x="52.5" y="45" width="15" height="15" as="geometry" />
        </mxCell>
        <mxCell id="wz2QxPy03fODHcNXmg_H-483" value="" style="ellipse;whiteSpace=wrap;html=1;aspect=fixed;gradientColor=none;fillColor=#FF3333;" vertex="1" parent="wz2QxPy03fODHcNXmg_H-484">
          <mxGeometry x="85" y="45" width="15" height="15" as="geometry" />
        </mxCell>
        <mxCell id="wz2QxPy03fODHcNXmg_H-485" value="" style="group" vertex="1" connectable="0" parent="1">
          <mxGeometry x="2395" y="11704.5" width="120" height="80" as="geometry" />
        </mxCell>
        <mxCell id="wz2QxPy03fODHcNXmg_H-470" value="" style="ellipse;whiteSpace=wrap;html=1;" vertex="1" parent="wz2QxPy03fODHcNXmg_H-485">
          <mxGeometry width="120" height="80" as="geometry" />
        </mxCell>
        <mxCell id="wz2QxPy03fODHcNXmg_H-471" value="" style="ellipse;whiteSpace=wrap;html=1;aspect=fixed;gradientColor=none;fillColor=#FF3333;" vertex="1" parent="wz2QxPy03fODHcNXmg_H-485">
          <mxGeometry x="85" y="19.5" width="15" height="15" as="geometry" />
        </mxCell>
        <mxCell id="wz2QxPy03fODHcNXmg_H-472" value="" style="ellipse;whiteSpace=wrap;html=1;aspect=fixed;gradientColor=none;fillColor=#FF3333;" vertex="1" parent="wz2QxPy03fODHcNXmg_H-485">
          <mxGeometry x="52.5" y="17" width="15" height="15" as="geometry" />
        </mxCell>
        <mxCell id="wz2QxPy03fODHcNXmg_H-473" value="" style="ellipse;whiteSpace=wrap;html=1;aspect=fixed;gradientColor=none;fillColor=#FF3333;" vertex="1" parent="wz2QxPy03fODHcNXmg_H-485">
          <mxGeometry x="20" y="45" width="15" height="15" as="geometry" />
        </mxCell>
        <mxCell id="wz2QxPy03fODHcNXmg_H-474" value="" style="ellipse;whiteSpace=wrap;html=1;aspect=fixed;gradientColor=none;fillColor=#FF3333;" vertex="1" parent="wz2QxPy03fODHcNXmg_H-485">
          <mxGeometry x="20" y="17" width="15" height="15" as="geometry" />
        </mxCell>
        <mxCell id="wz2QxPy03fODHcNXmg_H-475" value="" style="ellipse;whiteSpace=wrap;html=1;aspect=fixed;gradientColor=none;fillColor=#FF3333;" vertex="1" parent="wz2QxPy03fODHcNXmg_H-485">
          <mxGeometry x="52.5" y="45" width="15" height="15" as="geometry" />
        </mxCell>
        <mxCell id="wz2QxPy03fODHcNXmg_H-476" value="" style="ellipse;whiteSpace=wrap;html=1;aspect=fixed;gradientColor=none;fillColor=#FF3333;" vertex="1" parent="wz2QxPy03fODHcNXmg_H-485">
          <mxGeometry x="85" y="45" width="15" height="15" as="geometry" />
        </mxCell>
        <mxCell id="wz2QxPy03fODHcNXmg_H-486" value="`T_{i}^W`=`T_{i-1}^{W**}`&lt;span class=&quot;eusoft-eudic-chrome-extension-translate-content&quot;&gt;&lt;span class=&quot;eusoft-eudic-chrome-extension-translate-white-space ng-star-inserted&quot;&gt;&amp;nbsp;&lt;/span&gt;&lt;span data-eusoft-eudic-loading-template-original-text=&quot;`T_{i}^W`=`T_{i-1}^W`&quot; class=&quot;eusoft-eudic-translate-loading-tag ng-star-inserted&quot;&gt;&lt;/span&gt;&lt;/span&gt;" style="text;html=1;align=center;verticalAlign=middle;resizable=0;points=[];autosize=1;strokeColor=none;fillColor=none;" vertex="1" parent="1">
          <mxGeometry x="2275" y="11960" width="180" height="30" as="geometry" />
        </mxCell>
        <mxCell id="wz2QxPy03fODHcNXmg_H-487" value="其中后一帧的位姿为前一帧优化的位姿，优化成功后，&lt;div&gt;利用优化后的位姿将`p_{L_{i-1}}`转移到`M_i`中&lt;span class=&quot;eusoft-eudic-chrome-extension-translate-content&quot;&gt;&lt;/span&gt;&lt;/div&gt;" style="text;html=1;align=center;verticalAlign=middle;resizable=0;points=[];autosize=1;strokeColor=none;fillColor=none;" vertex="1" parent="1">
          <mxGeometry x="2230" y="11911" width="310" height="40" as="geometry" />
        </mxCell>
      </root>
    </mxGraphModel>
  </diagram>
</mxfile>
